<svg width="98" height="86" viewBox="0 0 98 86" fill="none" xmlns="http://www.w3.org/2000/svg">
<g filter="url(#filter0_d_2043_442)">
<path d="M45.0604 3.81037C48.6798 1.48848 53.3202 1.48848 56.9396 3.81037L88.266 23.9069C92.6085 26.6928 94.4314 32.1224 92.6497 36.9643L81.2758 67.873C79.6838 72.1995 75.5627 75.0742 70.9526 75.0742H31.0474C26.4373 75.0742 22.3162 72.1995 20.7242 67.873L9.35036 36.9643C7.56863 32.1224 9.39148 26.6928 13.734 23.9069L45.0604 3.81037Z" fill="white"/>
</g>
<path d="M48.8001 31.4627L32.1626 37.1345C32.1626 37.1345 32.2782 38.2377 32.7657 39.1877C33.3751 40.372 34.572 41.8189 36.8782 42.3377C40.2876 43.1033 44.3532 41.8627 48.2813 39.2314C52.2095 36.6002 54.3438 32.2314 53.5595 28.8127C52.8313 25.6439 50.8563 24.8252 49.4001 24.6783C48.8282 24.622 47.8782 24.6689 47.4563 24.8189C46.8001 25.047 48.8001 31.4627 48.8001 31.4627Z" fill="#871E0C"/>
<path d="M41.3125 29.2373C39.0062 30.8904 34.8468 30.4123 32.75 34.0873C30.8812 37.3685 33.3125 40.8685 36.4406 40.8685C39.5343 40.8685 43.6281 39.4373 46.6812 37.4154C49.8687 35.3029 54.1593 28.6466 50.725 25.8591C46.8531 22.7154 44.3093 27.0904 41.3125 29.2373Z" fill="#A62714"/>
<path d="M43.9594 28.4222C43.6032 28.3597 43.2938 29.2035 41.6938 30.2503C39.5313 31.666 38.2157 31.4097 38.3719 32.1316C38.4969 32.7097 39.7344 33.0753 41.3844 32.5441C44.1907 31.641 44.8344 28.5785 43.9594 28.4222Z" fill="#FBCB89"/>
<path d="M45.5596 28.2375C44.8533 27.8531 45.2408 26.9156 46.1002 26.15C47.0283 25.325 48.1096 25.4031 48.3658 25.8156C48.6908 26.3344 47.8846 26.9844 47.4127 27.4125C46.8471 27.9312 46.4096 28.7031 45.5596 28.2375ZM36.3315 33.2219C35.7627 32.5094 34.6471 33.1875 33.9877 34.0719C33.2408 35.075 32.8565 37.5219 33.8846 37.625C34.6565 37.7031 34.6565 36.2594 35.1721 35.5906C35.6877 34.9219 36.9471 33.9937 36.3315 33.2219Z" fill="#D16250"/>
<path d="M58.0404 32.9562C58.0404 32.9562 58.6623 31.0375 59.5311 31.1281C60.4342 31.2219 61.3029 31.3281 62.4686 32.9156C63.7811 34.7 64.2623 37.2094 65.2311 38.425C67.8436 41.6969 69.4186 41.9937 69.8186 45.3437C70.1998 48.5312 67.9373 52.6625 63.2748 51.7906C57.6342 50.7375 55.1904 43.8937 55.1904 43.8937L58.0404 32.9562Z" fill="#871E0C"/>
<path d="M55.0627 32.8223C53.6315 34.5442 53.6158 37.2973 53.8221 38.8942C54.0283 40.491 55.2471 45.6067 57.3846 47.8473C59.5221 50.0879 62.644 51.4036 64.8846 50.6317C67.1252 49.8598 68.294 48.1692 67.8877 45.491C67.669 44.0473 66.7533 42.7942 65.4408 41.841C64.1283 40.8879 61.8596 38.391 61.8596 38.391C61.8596 38.391 61.2158 35.0442 61.0877 33.8598C60.9596 32.6754 60.969 31.5567 59.9971 31.2223C59.2846 30.9723 56.5815 30.9942 55.0627 32.8223Z" fill="#A62714"/>
<path d="M57.8155 32.9565C57.3311 32.5127 56.7405 32.8408 56.5093 33.244C56.303 33.6033 56.1843 34.0471 56.5593 34.3408C57.0218 34.7002 57.3968 34.4252 57.7624 34.0408C58.0374 33.7471 58.1249 33.2377 57.8155 32.9565ZM55.653 35.3627C55.178 35.4408 54.6686 36.1346 54.9686 38.7846C55.328 41.9502 56.8187 44.4658 57.878 45.9221C58.9749 47.4283 60.0405 47.1752 60.053 47.019C60.0874 46.5752 59.3843 45.9065 58.5311 44.2627C57.2499 41.8033 56.4843 39.244 56.3749 37.8971C56.2186 35.9815 56.2686 35.2627 55.653 35.3627Z" fill="#D16250"/>
<path d="M60.9842 35.5847C60.7311 35.7909 60.3811 37.3316 61.9686 39.9409C63.8217 42.9878 65.4249 42.4566 65.5624 42.1316C65.6999 41.8066 64.4561 40.7753 63.903 40.0128C62.9124 38.6472 62.603 37.9722 61.9592 36.6941C61.6811 36.1409 61.2561 35.3628 60.9842 35.5847Z" fill="#FBCB89"/>
<path d="M46.7565 51.8746C46.6783 51.8496 35.5252 48.5558 35.5252 48.5558C35.5252 48.5558 35.4127 48.8902 35.3502 49.4371C35.2221 50.5496 35.3502 52.4465 36.3002 54.0871C37.1065 55.4777 38.4283 56.5683 40.2408 57.3871C41.3565 57.8933 42.7846 58.3152 44.7377 58.7215C50.4283 59.9027 57.3283 58.3027 58.0346 52.9496C58.3221 50.7777 57.0658 49.0746 55.9815 48.2371C54.394 47.009 52.6846 47.234 52.6846 47.234L46.7565 51.8746Z" fill="#871E0C"/>
<path d="M48.5127 47.2595C44.8158 47.2595 43.1627 44.872 39.9627 45.0814C37.7533 45.2251 36.4471 46.472 35.9221 47.522C35.3971 48.572 34.8564 50.4032 36.1314 51.8501C37.5221 53.4251 39.6971 55.7064 46.4127 56.8595C53.2283 58.0314 56.5908 53.922 56.8783 51.5626C57.1658 49.2032 55.8564 47.6032 53.9158 47.3126C51.9752 47.022 49.2252 47.2595 48.5127 47.2595Z" fill="#A62714"/>
<path d="M44.2627 47.4436C43.9127 47.803 44.9096 49.7811 47.394 49.928C49.8784 50.0748 50.8377 48.4842 50.5252 48.278C50.3409 48.1561 48.3815 48.228 47.4377 48.1311C45.8065 47.9686 44.4659 47.2373 44.2627 47.4436Z" fill="#FBCB89"/>
<path d="M41.8908 47.2063C41.5596 48.3594 39.5596 47.4219 38.3471 48.175C37.0471 48.9782 36.6346 50.4625 36.3283 50.4625C35.8752 50.4625 35.8439 47.8438 38.1627 46.5469C39.8939 45.5782 42.1252 46.3938 41.8908 47.2063Z" fill="#D16250"/>
<defs>
<filter id="filter0_d_2043_442" x="0.672363" y="2.06934" width="92.6553" height="83.0049" filterUnits="userSpaceOnUse" color-interpolation-filters="sRGB">
<feFlood flood-opacity="0" result="BackgroundImageFix"/>
<feColorMatrix in="SourceAlpha" type="matrix" values="0 0 0 0 0 0 0 0 0 0 0 0 0 0 0 0 0 0 127 0" result="hardAlpha"/>
<feOffset dx="-4" dy="6"/>
<feGaussianBlur stdDeviation="2"/>
<feComposite in2="hardAlpha" operator="out"/>
<feColorMatrix type="matrix" values="0 0 0 0 0 0 0 0 0 0 0 0 0 0 0 0 0 0 0.25 0"/>
<feBlend mode="normal" in2="BackgroundImageFix" result="effect1_dropShadow_2043_442"/>
<feBlend mode="normal" in="SourceGraphic" in2="effect1_dropShadow_2043_442" result="shape"/>
</filter>
</defs>
</svg>
