<svg width="98" height="86" viewBox="0 0 98 86" fill="none" xmlns="http://www.w3.org/2000/svg">
<g filter="url(#filter0_d_2044_448)">
<path d="M45.0604 3.81037C48.6798 1.48848 53.3202 1.48848 56.9396 3.81037L88.266 23.9069C92.6085 26.6928 94.4314 32.1224 92.6497 36.9643L81.2758 67.873C79.6838 72.1995 75.5627 75.0742 70.9526 75.0742H31.0474C26.4373 75.0742 22.3162 72.1995 20.7242 67.873L9.35036 36.9643C7.56863 32.1224 9.39148 26.6928 13.734 23.9069L45.0604 3.81037Z" fill="white"/>
</g>
<path d="M51.9999 58.5554C57.8296 58.5554 62.5554 51.591 62.5554 42.9999C62.5554 34.4088 57.8296 27.4443 51.9999 27.4443C46.1702 27.4443 41.4443 34.4088 41.4443 42.9999C41.4443 51.591 46.1702 58.5554 51.9999 58.5554Z" fill="#A57939"/>
<path fill-rule="evenodd" clip-rule="evenodd" d="M52.1741 58.5554C52.1658 58.5554 52.163 58.5438 52.1713 58.541C56.7969 56.9666 60.2563 50.6188 60.2563 43.0282C60.2563 35.4332 56.793 29.0827 52.1636 27.5127C52.1263 27.4999 52.1347 27.4443 52.1741 27.4443C57.9074 27.4443 62.5558 34.4088 62.5558 42.9999C62.5558 51.591 57.9074 58.5554 52.1741 58.5554Z" fill="#6A462F"/>
<path fill-rule="evenodd" clip-rule="evenodd" d="M52.0003 56.8891C52.0003 56.8891 48.667 50.6708 48.667 43.0002C48.667 35.3558 51.9781 29.1536 52.0003 29.1113C51.9842 29.1413 50.3337 32.2391 50.3337 36.0558C50.3337 39.8908 52.0003 43.0002 52.0003 43.0002C52.0003 43.0002 53.667 46.1091 53.667 49.9447C53.667 53.7802 52.0003 56.8891 52.0003 56.8891Z" fill="#6A462F"/>
<path d="M52.0002 56.8893L51.5108 57.1516C51.5583 57.24 51.6289 57.314 51.7151 57.3655C51.8013 57.4171 51.8998 57.4443 52.0002 57.4443C52.1006 57.4443 52.1992 57.4171 52.2854 57.3655C52.3715 57.314 52.4422 57.24 52.4897 57.1516L52.0002 56.8893ZM52.0002 29.1116L52.4902 29.3732C52.5597 29.2433 52.5747 29.091 52.5319 28.95C52.4892 28.809 52.3921 28.6908 52.2622 28.6213C52.1322 28.5518 51.98 28.5368 51.839 28.5796C51.6979 28.6223 51.5797 28.7194 51.5102 28.8493L52.0002 29.1116ZM48.1113 43.0005C48.1113 46.9127 48.9608 50.446 49.8058 52.996C50.1451 54.0236 50.5343 55.0341 50.9719 56.0238C51.1289 56.3771 51.2947 56.7265 51.4691 57.0716L51.4991 57.1293L51.5069 57.1449L51.5097 57.1493V57.151L52.0002 56.8893C52.3265 56.7142 52.4898 56.6267 52.4902 56.6271L52.4886 56.6243L52.4824 56.6127L52.4569 56.5627C52.4335 56.5182 52.3997 56.4512 52.3552 56.3616C52.2274 56.1008 52.1046 55.8376 51.9869 55.5721C51.5643 54.6158 51.1885 53.6394 50.8608 52.6466C50.0397 50.1693 49.2224 46.7582 49.2224 43.0005H48.1113ZM51.5102 28.8493C51.4752 28.916 48.1113 35.216 48.1113 43.0005H49.2224C49.2224 35.4949 52.4802 29.3921 52.4902 29.3738L51.5102 28.8493ZM50.8891 36.056C50.8891 34.2243 51.2858 32.5566 51.6885 31.3377C52.0902 30.121 52.4924 29.3688 52.4902 29.3732L51.5102 28.8499C51.4813 28.9032 49.778 32.0999 49.778 36.0555L50.8891 36.056ZM52.0002 43.0005C52.3265 42.8253 52.4898 42.7379 52.4902 42.7382L52.4897 42.7377L52.4874 42.7327L52.4269 42.6138C52.3841 42.5271 52.3224 42.3971 52.2474 42.2288C52.0402 41.7588 51.8555 41.2792 51.6941 40.7916C51.2897 39.571 50.8891 37.896 50.8891 36.056L49.778 36.0555C49.778 38.0499 50.2113 39.8477 50.6402 41.141C50.8129 41.6631 51.0106 42.1767 51.2324 42.6799C51.3132 42.8616 51.3984 43.0413 51.488 43.2188L51.5047 43.2499C51.5061 43.2536 51.5076 43.2564 51.5091 43.2582L51.5102 43.261V43.2621L52.0002 43.0005ZM52.0002 43.0005L51.5102 43.2621L51.5108 43.2627L51.5136 43.2682L51.5735 43.3866C51.6163 43.4732 51.678 43.6032 51.753 43.7716C51.903 44.1088 52.1047 44.6005 52.3063 45.2088C52.7108 46.4293 53.1119 48.1043 53.1119 49.9449H54.223C54.223 47.9499 53.7897 46.1527 53.3608 44.8593C53.188 44.3372 52.9904 43.8237 52.7685 43.3205C52.6827 43.1283 52.592 42.9384 52.4963 42.751L52.4919 42.7421L52.4908 42.7393L52.4902 42.7382L52.0002 43.0005ZM53.1119 49.9449C53.1119 51.7849 52.7108 53.4599 52.3058 54.6804C52.1445 55.1681 51.9601 55.6477 51.753 56.1177C51.6772 56.2876 51.5972 56.4556 51.513 56.6216L51.5108 56.6266L52.0002 56.8893L52.4897 57.1516L52.4902 57.1499L52.4919 57.1471L52.4969 57.1388L52.513 57.1077L52.5702 56.9938C52.6186 56.8949 52.6869 56.7521 52.768 56.5693C52.99 56.0661 53.1879 55.5526 53.3608 55.0305C53.7897 53.736 54.223 51.9393 54.223 49.9449H53.1119Z" fill="#6A462F"/>
<path d="M51.9999 58.5554C57.8296 58.5554 62.5554 51.591 62.5554 42.9999C62.5554 34.4088 57.8296 27.4443 51.9999 27.4443C46.1702 27.4443 41.4443 34.4088 41.4443 42.9999C41.4443 51.591 46.1702 58.5554 51.9999 58.5554Z" stroke="black" stroke-width="0.5"/>
<path d="M51.9997 29.1113C51.9997 29.1113 50.333 32.2202 50.333 36.0558C50.333 39.8913 51.9997 43.0002 51.9997 43.0002C51.9997 43.0002 53.6663 46.1091 53.6663 49.9447C53.6663 53.7802 51.9997 56.8891 51.9997 56.8891" stroke="black" stroke-width="0.5" stroke-linecap="round" stroke-linejoin="round"/>
<defs>
<filter id="filter0_d_2044_448" x="0.672363" y="2.06934" width="92.6553" height="83.0049" filterUnits="userSpaceOnUse" color-interpolation-filters="sRGB">
<feFlood flood-opacity="0" result="BackgroundImageFix"/>
<feColorMatrix in="SourceAlpha" type="matrix" values="0 0 0 0 0 0 0 0 0 0 0 0 0 0 0 0 0 0 127 0" result="hardAlpha"/>
<feOffset dx="-4" dy="6"/>
<feGaussianBlur stdDeviation="2"/>
<feComposite in2="hardAlpha" operator="out"/>
<feColorMatrix type="matrix" values="0 0 0 0 0 0 0 0 0 0 0 0 0 0 0 0 0 0 0.25 0"/>
<feBlend mode="normal" in2="BackgroundImageFix" result="effect1_dropShadow_2044_448"/>
<feBlend mode="normal" in="SourceGraphic" in2="effect1_dropShadow_2044_448" result="shape"/>
</filter>
</defs>
</svg>
