<svg width="98" height="86" viewBox="0 0 98 86" fill="none" xmlns="http://www.w3.org/2000/svg">
<g filter="url(#filter0_d_2043_440)">
<path d="M45.0604 3.81037C48.6798 1.48848 53.3202 1.48848 56.9396 3.81037L88.266 23.9069C92.6085 26.6928 94.4314 32.1224 92.6497 36.9643L81.2758 67.873C79.6838 72.1995 75.5627 75.0742 70.9526 75.0742H31.0474C26.4373 75.0742 22.3162 72.1995 20.7242 67.873L9.35036 36.9643C7.56863 32.1224 9.39148 26.6928 13.734 23.9069L45.0604 3.81037Z" fill="white"/>
</g>
<path d="M70.8315 45.1745C70.669 44.6058 70.3658 44.1402 70.0908 43.712C69.9158 43.4464 69.7221 43.1401 69.6127 42.8433C69.494 42.5058 69.3346 42.2089 69.1815 41.9245C69.0377 41.6589 68.9033 41.412 68.8377 41.1808C68.7158 40.7714 68.7877 40.262 68.869 39.7245C68.894 39.5651 68.9158 39.4089 68.9346 39.2526C69.0127 38.6214 69.1283 37.9964 69.2815 37.3933C69.3033 37.3183 69.3377 37.2026 69.3815 37.0589C69.8815 35.4339 70.0346 34.6151 69.6158 34.0526C69.4221 33.787 69.1158 33.637 68.7846 33.637C68.3096 33.637 67.9002 33.9526 67.594 34.2276C67.3221 34.4714 67.1158 34.7526 66.9346 35.0026L66.7908 35.2026C66.4971 35.5933 66.2002 35.9776 65.9002 36.362C65.5033 36.8776 65.1033 37.3964 64.7096 37.9245C64.6158 38.0464 64.5221 38.1933 64.4158 38.3495C64.2596 38.5933 63.8877 39.162 63.6877 39.2089C63.569 39.2089 63.3377 39.0964 63.1502 39.0058L63.0096 38.9401C61.9315 38.4276 60.7658 37.8839 59.5533 37.3808C59.269 36.7964 58.8315 36.2714 58.519 35.7089C58.1158 34.9776 57.7221 33.6089 56.6658 33.8464C55.8971 34.0214 55.1158 34.9683 54.5596 35.4839C54.4846 35.5526 54.4158 35.6151 54.3565 35.6745C52.0502 35.0464 49.7471 34.5558 47.3783 34.4276C47.1971 33.862 47.2221 33.1995 47.2783 32.5933C47.344 31.887 47.519 30.9526 46.4815 31.2651C45.8033 31.4683 45.2033 32.062 44.6471 32.4839C43.7783 33.1464 43.0533 33.9308 42.3565 34.7683C41.6252 34.912 40.9096 35.0901 40.2221 35.3183C37.7908 36.1245 35.6658 37.4401 33.9033 39.2339C33.3877 39.762 32.9065 40.3276 32.4721 40.9089C32.244 41.212 32.0221 41.5276 31.8127 41.862L31.6783 42.0651C31.5002 42.3339 31.3002 42.637 31.1658 43.0339C30.8971 43.8276 31.3908 44.3589 31.6252 44.6152L31.7627 44.7401C31.7658 44.812 31.7627 44.8651 31.7596 44.912C31.7471 45.1995 31.7533 45.4933 32.0408 45.937C32.9315 47.3026 34.4908 48.1495 35.6315 48.7683L35.8627 48.8964C37.1252 49.587 38.4815 50.112 40.0033 50.512C40.8346 50.7276 41.6658 50.9058 42.4908 51.0495C42.7377 51.2433 42.9783 51.4058 43.0377 51.4433C43.9877 52.0808 45.2033 52.7745 46.3846 52.7745C47.2971 52.7745 46.5783 51.8589 46.3252 51.5245C46.3033 51.4964 46.2846 51.4652 46.2596 51.4339C46.5596 51.4433 46.869 51.4683 47.1596 51.4683C47.8721 51.4683 48.5752 51.437 49.2565 51.3776C51.2065 51.2058 53.2346 50.7089 55.2846 49.9026C55.3377 49.8808 55.3877 49.8589 55.4377 49.837C55.519 49.8495 55.6002 49.862 55.6533 49.8714C56.3502 49.9964 57.0658 50.2808 57.7815 50.2308C58.7752 50.1589 58.794 49.662 59.1283 48.8714C59.2877 48.5089 59.3846 48.1339 59.5346 47.7714C59.5533 47.7276 59.5752 47.6745 59.5971 47.6276C60.5096 47.0245 61.4283 46.3433 62.3627 45.5714C62.6783 45.3151 63.019 45.087 63.3815 44.8464C63.7471 44.5995 64.1283 44.3464 64.5565 44.0339C64.9065 44.0339 65.5596 44.512 65.8721 44.7401L66.2252 44.9964C66.8471 45.4495 67.4908 45.9183 68.2158 46.2901C68.544 46.4589 69.169 46.7433 69.6971 46.7433C70.2346 46.7433 70.5221 46.4651 70.6471 46.3026C70.8315 46.0995 70.9877 45.7308 70.8315 45.1745Z" fill="#006CA2"/>
<path d="M62.4594 43.4313C62.075 43.6844 61.6844 43.9469 61.3031 44.2594C59.025 46.1313 56.8594 47.4625 54.6812 48.3188C52.7844 49.0656 50.9156 49.525 49.125 49.6813C47.9594 49.7875 46.7281 49.7938 45.4625 49.7063C44.0156 49.6031 42.5312 49.3656 41.0375 49.0094C41.2281 48.5875 41.3844 48.1469 41.5031 47.7C41.6469 47.1656 41.6969 46.4688 41.6469 45.8625C41.8687 45.9375 42.0844 46.0063 42.3062 46.0875C43.0063 46.3469 43.7188 46.5156 44.4281 46.5219C44.9594 46.5219 45.3406 46.0219 45.7563 45.5469C46.2094 45.025 46.6875 44.5125 46.7812 43.4438C46.8063 43.1906 46.8906 42.8375 46.775 42.6531C46.6406 42.4312 46.3344 42.4687 46.1656 42.4219C45.9406 42.3656 45.7219 42.3406 45.5031 42.3125C44.8656 42.2313 44.2719 42.2781 43.6438 42.4156C42.9313 42.5688 42.2031 42.7781 41.5125 43.1188C41.4219 43.1625 41.3344 43.2188 41.2437 43.2719C41.1062 42.6781 40.8812 42.1 40.6687 41.5312C40.5031 41.0875 40.3937 40.6406 40.0031 40.3281C39.7937 40.1594 39.2594 40.0063 39.1594 40.3719C39.1188 40.525 39.2125 40.7469 39.325 40.9562C39.4156 41.125 39.5125 41.2844 39.5531 41.4C39.8406 42.2375 39.975 43.1188 40.1062 43.9875C40.2656 45.0219 40.3062 45.8937 40.2344 46.9438C40.2 47.4406 40.0625 47.9187 39.8937 48.3375C39.8469 48.45 39.7938 48.5594 39.7344 48.6656C38.6344 48.3313 37.6312 47.9219 36.6937 47.4094L36.4594 47.2812C35.4406 46.7281 34.1719 46.0375 33.4781 45.0031C33.4844 44.9219 33.4875 44.825 33.4813 44.7031C33.7031 44.375 34.2656 44.4969 34.5688 44.6031C34.9594 44.7406 35.3312 45.0031 35.7438 44.9656C36.1406 44.9312 36.2875 44.5313 36.0719 44.2125C35.8656 43.9 35.3625 43.7531 35.0406 43.5937C34.6719 43.4094 34.2344 43.3281 33.8375 43.2156C33.5875 43.1437 33.325 43.1156 33.0625 43.1094C33.0812 43.0813 33.0938 43.0563 33.1125 43.0281C33.1656 42.9469 33.2219 42.8656 33.2688 42.7844C33.45 42.4938 33.65 42.2156 33.8469 41.9469C34.2375 41.425 34.6656 40.9219 35.1313 40.4469C35.5031 40.0687 35.8969 39.7125 36.3031 39.3844C36.5719 39.1844 37.2312 38.8125 38.2188 38.9969C39.2656 39.1937 39.8844 39.6969 41.7281 39.4063C43.575 39.1156 43.7906 38.25 45.5906 38.25C47.3906 38.25 48.0219 39.6562 50.225 39.7625C52.1875 39.8531 52.3656 38.6844 54.25 38.9656C56.1344 39.2438 56.3125 41.0594 58.8531 41.0594C61.3937 41.0594 61.7531 40.1531 64.4094 42.0875C64.4 42.175 64.3781 42.2656 64.3531 42.3594C64.0156 42.4 63.7031 42.525 63.4406 42.7375C63.1406 42.975 62.8094 43.1969 62.4594 43.4313Z" fill="#40C0E7"/>
<mask id="mask0_2043_440" style="mask-type:luminance" maskUnits="userSpaceOnUse" x="33" y="38" width="32" height="12">
<path d="M62.4594 43.4313C62.075 43.6844 61.6844 43.9469 61.3031 44.2594C59.025 46.1313 56.8594 47.4625 54.6812 48.3188C52.7844 49.0656 50.9156 49.525 49.125 49.6813C47.9594 49.7875 46.7281 49.7938 45.4625 49.7063C44.0156 49.6031 42.5312 49.3656 41.0375 49.0094C41.2281 48.5875 41.3844 48.1469 41.5031 47.7C41.6469 47.1656 41.6969 46.4688 41.6469 45.8625C41.8687 45.9375 42.0844 46.0063 42.3062 46.0875C43.0063 46.3469 43.7188 46.5156 44.4281 46.5219C44.9594 46.5219 45.3406 46.0219 45.7563 45.5469C46.2094 45.025 46.6875 44.5125 46.7812 43.4438C46.8063 43.1906 46.8906 42.8375 46.775 42.6531C46.6406 42.4312 46.3344 42.4687 46.1656 42.4219C45.9406 42.3656 45.7219 42.3406 45.5031 42.3125C44.8656 42.2313 44.2719 42.2781 43.6438 42.4156C42.9313 42.5688 42.2031 42.7781 41.5125 43.1188C41.4219 43.1625 41.3344 43.2188 41.2437 43.2719C41.1062 42.6781 40.8812 42.1 40.6687 41.5312C40.5031 41.0875 40.3937 40.6406 40.0031 40.3281C39.7937 40.1594 39.2594 40.0063 39.1594 40.3719C39.1188 40.525 39.2125 40.7469 39.325 40.9562C39.4156 41.125 39.5125 41.2844 39.5531 41.4C39.8406 42.2375 39.975 43.1188 40.1062 43.9875C40.2656 45.0219 40.3062 45.8937 40.2344 46.9438C40.2 47.4406 40.0625 47.9187 39.8937 48.3375C39.8469 48.45 39.7938 48.5594 39.7344 48.6656C38.6344 48.3313 37.6312 47.9219 36.6937 47.4094L36.4594 47.2812C35.4406 46.7281 34.1719 46.0375 33.4781 45.0031C33.4844 44.9219 33.4875 44.825 33.4813 44.7031C33.7031 44.375 34.2656 44.4969 34.5688 44.6031C34.9594 44.7406 35.3312 45.0031 35.7438 44.9656C36.1406 44.9312 36.2875 44.5313 36.0719 44.2125C35.8656 43.9 35.3625 43.7531 35.0406 43.5937C34.6719 43.4094 34.2344 43.3281 33.8375 43.2156C33.5875 43.1437 33.325 43.1156 33.0625 43.1094C33.0812 43.0813 33.0938 43.0563 33.1125 43.0281C33.1656 42.9469 33.2219 42.8656 33.2688 42.7844C33.45 42.4938 33.65 42.2156 33.8469 41.9469C34.2375 41.425 34.6656 40.9219 35.1313 40.4469C35.5031 40.0687 35.8969 39.7125 36.3031 39.3844C36.5719 39.1844 37.2312 38.8125 38.2188 38.9969C39.2656 39.1937 39.8844 39.6969 41.7281 39.4063C43.575 39.1156 43.7906 38.25 45.5906 38.25C47.3906 38.25 48.0219 39.6562 50.225 39.7625C52.1875 39.8531 52.3656 38.6844 54.25 38.9656C56.1344 39.2438 56.3125 41.0594 58.8531 41.0594C61.3937 41.0594 61.7531 40.1531 64.4094 42.0875C64.4 42.175 64.3781 42.2656 64.3531 42.3594C64.0156 42.4 63.7031 42.525 63.4406 42.7375C63.1406 42.975 62.8094 43.1969 62.4594 43.4313Z" fill="white"/>
</mask>
<g mask="url(#mask0_2043_440)">
<path d="M32.6626 43.7342C32.6626 43.7342 38.5595 45.6529 48.9751 45.4342C57.7876 45.2498 65.9438 41.3311 65.9438 41.3311L65.6532 42.9342L63.9845 43.3967C63.9845 43.3967 57.1501 50.3467 49.2063 50.5373C46.372 50.6029 42.2657 50.2873 39.7282 49.4904C35.1438 48.0404 32.9095 45.6592 32.9095 45.6592L32.6626 43.7342Z" fill="white"/>
</g>
<path d="M36.4063 41.0495C35.8282 41.0808 35.3751 41.637 35.4063 42.2839C35.4376 42.9339 35.9313 43.4308 36.5094 43.3995C37.0938 43.3651 37.5469 42.8151 37.5157 42.1651C37.4813 41.5183 36.9876 41.0151 36.4063 41.0495Z" fill="#2F2F2F"/>
<defs>
<filter id="filter0_d_2043_440" x="0.672363" y="2.06934" width="92.6553" height="83.0049" filterUnits="userSpaceOnUse" color-interpolation-filters="sRGB">
<feFlood flood-opacity="0" result="BackgroundImageFix"/>
<feColorMatrix in="SourceAlpha" type="matrix" values="0 0 0 0 0 0 0 0 0 0 0 0 0 0 0 0 0 0 127 0" result="hardAlpha"/>
<feOffset dx="-4" dy="6"/>
<feGaussianBlur stdDeviation="2"/>
<feComposite in2="hardAlpha" operator="out"/>
<feColorMatrix type="matrix" values="0 0 0 0 0 0 0 0 0 0 0 0 0 0 0 0 0 0 0.25 0"/>
<feBlend mode="normal" in2="BackgroundImageFix" result="effect1_dropShadow_2043_440"/>
<feBlend mode="normal" in="SourceGraphic" in2="effect1_dropShadow_2043_440" result="shape"/>
</filter>
</defs>
</svg>
