<svg width="98" height="86" viewBox="0 0 98 86" fill="none" xmlns="http://www.w3.org/2000/svg">
<g filter="url(#filter0_d_2044_446)">
<path d="M45.0604 3.81037C48.6798 1.48848 53.3202 1.48848 56.9396 3.81037L88.266 23.9069C92.6085 26.6928 94.4314 32.1224 92.6497 36.9643L81.2758 67.873C79.6838 72.1995 75.5627 75.0742 70.9526 75.0742H31.0474C26.4373 75.0742 22.3162 72.1995 20.7242 67.873L9.35036 36.9643C7.56863 32.1224 9.39148 26.6928 13.734 23.9069L45.0604 3.81037Z" fill="white"/>
</g>
<path d="M50.531 54.7373C50.531 54.7373 45.2466 58.7029 42.931 60.0217C42.5248 60.2529 33.5466 51.506 34.5904 50.4717C35.1873 49.881 38.4123 47.7092 39.081 46.7967C39.081 46.7967 39.1404 46.7217 38.9841 46.5904C37.1123 45.056 35.1185 43.2904 33.6966 40.7154C32.3029 38.1904 31.6935 32.0342 34.0748 28.1717C34.5466 27.406 36.8966 27.2123 39.2716 27.7154C42.4748 28.3904 44.2248 29.4998 43.6279 31.481C43.0966 33.2498 41.6466 36.3623 41.6498 38.5842C41.6529 40.4529 43.9091 41.7248 43.9091 41.7248C43.9091 41.7248 45.331 39.6748 46.0029 36.4092C46.4248 34.3467 46.0029 31.3217 45.8091 29.1873C45.6029 26.906 45.781 22.431 57.4748 23.3842C64.2529 23.9342 64.9529 25.156 65.3435 27.7248C65.5029 28.7717 65.3404 33.1154 65.3404 33.1154C65.3404 33.1154 67.0779 33.7029 67.4904 34.5092C67.8154 35.1435 67.8091 37.506 67.731 38.3185C67.6435 39.2123 65.0966 40.031 63.2966 40.5685C62.6341 40.7654 61.2873 43.0654 60.4373 44.481C59.6685 45.7623 55.7966 49.6342 55.7966 49.6342C56.6935 49.9748 58.4654 49.2373 59.1966 48.7373C59.8185 48.3123 60.3716 47.781 60.8216 47.1748C61.3779 46.4248 61.8123 45.531 62.6154 45.0592C63.4498 44.5685 65.6841 44.931 67.4248 46.9654C69.5154 49.4029 69.3966 50.9592 69.0341 51.9029C68.7716 52.5842 66.6498 55.7717 61.5373 56.8592C56.1498 58.006 50.531 54.7373 50.531 54.7373Z" fill="#E5B27F"/>
<path d="M46.1717 35.6152C46.203 35.5934 47.8623 34.1902 49.278 33.5152C50.728 32.8246 52.2217 32.5121 54.2748 32.4652C55.9592 32.4277 58.3717 32.759 61.4155 31.6184C62.8092 31.0965 63.8561 30.0809 63.8998 30.9371C63.9592 32.0184 63.6686 32.3777 63.2405 32.8309C62.8217 33.2777 63.2405 33.459 63.4155 33.384C64.0811 33.0965 64.7811 33.0652 65.528 33.1652C65.4186 32.7621 65.6592 29.0777 65.6217 27.9965C65.5623 26.3277 65.2311 25.0777 63.8061 24.3527C63.3186 24.1059 61.2623 23.7215 59.1967 23.5121C56.8873 23.2777 54.5467 23.2215 53.8405 23.2621C53.6467 23.2746 53.2748 23.5684 54.0592 23.7309C54.8436 23.8934 59.4717 24.5277 60.5061 24.8621C61.2405 25.0996 62.7717 25.6902 62.7498 27.2371C62.7405 27.9746 62.7498 29.0215 59.4905 30.0215C56.0717 31.0652 52.3561 30.3809 49.1248 31.9746C47.3623 32.8434 46.4186 33.9996 46.2905 34.1871C46.2717 34.2152 46.1842 34.3152 46.1842 34.4309C46.1842 34.7277 46.1686 35.1871 46.1342 35.4965C46.1248 35.5902 46.1186 35.6559 46.1717 35.6152Z" fill="#BC8346"/>
<path d="M67.9969 47.0752C67.1906 46.0252 65.7094 44.6158 63.5406 44.694C63.1375 44.7096 62.7406 44.894 62.4531 45.1752C61.7 45.9283 62.05 47.0815 62.3719 47.9877C62.7938 49.1627 64.4688 51.0346 65.6719 52.0096C65.8656 52.1658 66.4719 52.5815 66.0813 53.2346C65.8063 53.694 64.6813 54.5502 63.0313 55.019C62.575 55.1502 62.0938 54.9127 61.9 54.6721C60.7344 53.2315 59.5563 51.0221 59.5438 48.7221C59.5438 48.5783 59.3938 48.6065 59.2719 48.6815C59.1563 48.7565 58.9563 48.8846 58.8094 48.9877C58.6469 49.1033 58.5938 49.4877 58.5875 49.619C58.5156 51.0346 59.2563 53.4252 60.1688 55.1721C60.3281 55.4752 60.3125 55.6377 59.6906 55.7658C57.9813 56.1252 56.1625 55.7533 55.4813 55.5471C54.9 55.3721 54.9281 54.9533 54.9625 54.5877C55.2063 51.8502 56.6344 49.7221 56.6344 49.7221C56.6344 49.7221 56.1563 49.7252 55.8313 49.9565C55.275 50.3471 54.825 51.0096 54.5781 51.5127C54.0438 52.6002 53.8281 53.6471 53.6531 54.6252C53.6531 54.6252 53.5875 55.1252 52.9781 55.0158C52.3781 54.9096 51.3656 54.5158 50.825 53.8627C50.1688 53.0721 51.4969 50.5783 53 49.8127C54.4219 49.0877 55.8094 49.6377 55.8094 49.6377C57.9656 47.8533 59.8 45.9471 61.2313 43.6502C61.8406 42.669 62.6531 41.3533 63.2125 40.8846C64.0188 40.2096 66.1969 40.144 67.5906 39.0127C68.0688 38.6252 68.3969 37.6627 68.2219 36.3565C68.0469 35.0502 67.3281 33.8971 66.8938 34.1127C66.2938 34.4127 66 36.0721 66.6156 37.6971C66.8375 38.2815 66.2156 38.4815 65.7375 38.6408C65.0438 38.8377 64.0531 39.0502 63.4125 38.6815C62.4719 38.1408 62.55 36.2721 62.8063 35.4971C63.0594 34.7221 62.5125 34.3658 61.9813 34.9127C60.9375 35.9721 60.8969 37.6752 61.2594 39.119C61.3094 39.3221 61.3813 39.9471 60.4031 40.2533C58.65 40.7971 56.1844 39.794 54.6531 39.1002C50.5813 37.2502 48.1313 37.744 46.7563 38.4283C44.5719 39.5158 43.9188 41.6533 43.9188 41.6533C43.9188 41.6533 42.1 40.5065 41.7938 38.8846C41.7125 38.4502 41.8125 37.594 41.9125 37.1658C42.4469 34.9283 43.4781 32.4065 43.7188 31.569C44.2125 29.8565 42.6156 28.7627 41.7531 28.419C40.8906 28.0752 40.2219 28.1502 40.7594 28.4565C41.3969 28.819 42.175 29.2408 42.2844 29.7846C42.3906 30.3127 42.1313 30.8721 40.4563 30.9377C38.8875 31.0002 36.6469 30.4158 35.85 29.5971C35.4094 29.144 35.0563 28.694 35.5344 28.2658C35.8156 28.0127 36.7563 27.8971 37.7469 27.8158C38.3188 27.769 38.3344 27.5408 37.9875 27.4971C36.4063 27.294 34.0469 27.294 33.8219 28.644C33.6125 29.894 35.5688 31.2877 36.9625 31.8252C38.4531 32.4002 39.9375 32.6971 41.2063 32.7533C41.4813 32.7658 41.5563 32.869 41.4688 33.2002C41.3813 33.5346 40.9781 35.1627 40.5281 36.2971C40.3938 36.6408 40.2625 36.8002 39.4344 36.9158C36.7031 37.3002 34.2719 36.719 32.4844 35.3471C32.4844 35.3471 32.4844 35.6721 32.5031 35.9971C32.5187 36.2815 32.5969 36.7877 32.5969 36.7877C34.5813 38.3096 37.1938 38.594 39.575 38.3002C39.9438 38.2533 40.4188 38.1315 40.4469 38.4252C40.4813 38.8033 39.9688 38.919 38.6656 39.4408C37.1125 40.0658 35.9844 41.219 35.2188 42.5221C35.1 42.7252 35.125 42.8065 35.4188 43.1471C35.7188 43.4908 35.8375 43.6408 36.0313 43.4127C37.2313 42.0033 38.4031 40.6065 40.6875 40.2096C40.8188 40.1877 41.125 40.1971 41.3781 40.594C41.6844 41.0721 41.8469 41.344 42.2594 41.9346C42.4 42.1315 42.2344 42.3658 41.8125 42.7283C39.6469 44.6127 39.0844 46.3096 39.0688 46.5065C39.0531 46.7033 39.0969 46.7658 39.1781 46.6908C39.1781 46.6908 40.1969 45.8533 41.0469 45.3283C41.8094 44.8596 42.8094 44.5221 43.8063 44.4565C45.075 44.3721 46.4469 44.894 46.9875 46.2908C47.4438 47.469 47.1188 48.7815 47.175 50.044C47.1844 51.3096 47.7875 52.6158 48.0656 53.6752C48.2875 54.519 47.2656 54.9971 46.4219 55.6346C46.0969 55.8815 45.5531 56.2408 45.1313 56.5158C44.8531 56.6971 44.4844 56.5377 44.4188 56.2127C44.2219 55.2596 43.5875 53.4471 41.5469 51.4846C39.4719 49.5002 36.1563 48.7846 34.1906 50.8596C32.5094 52.5408 33.1281 55.8877 35.5719 58.3315C37.75 60.5096 40.2656 61.2096 42.4969 60.4596C43.9813 59.9596 47.5094 57.1315 49.5813 56.0471C50.1906 55.7283 50.4438 55.3502 51.0563 55.569C52.4625 56.0721 55.7594 57.2565 58.1125 57.3752C60.6813 57.5065 63.0625 57.0408 65.6969 55.5658C67.25 54.694 68.5469 53.1658 69.1844 52.0346C69.8906 50.7752 69.5219 49.0565 67.9969 47.0752ZM49.9938 49.8002C49.2938 50.1033 49.6063 47.9815 49.6188 47.6721C49.6813 45.919 48.825 44.7471 47.7875 44.1346C46.3313 43.2752 44.7594 43.3565 44.15 43.1252C43.5406 42.894 44.325 41.5596 45.3688 40.744C46.7031 39.7002 48.8156 38.8127 50.6656 39.4002C53.8625 40.4127 56.6625 42.3408 58.5219 42.7502C59.6906 43.0065 58.7938 44.1971 58.0875 45.044C57.2688 46.0221 56.1125 47.569 55.125 47.744C53.7188 47.9908 52.4313 48.0252 51.35 48.8471C50.9906 49.1221 50.125 49.744 49.9938 49.8002Z" fill="#BC8346"/>
<path d="M67.147 50.534C68.4095 50.8809 68.5126 50.1278 68.2126 49.2278C67.8001 47.9871 66.7314 46.4403 65.122 45.7434C63.222 44.9184 63.3532 46.4278 63.9439 47.684C64.4907 48.8371 65.9064 50.1934 67.147 50.534Z" fill="#E5B27F"/>
<path d="M41.7508 58.6052C42.9895 57.3665 42.5353 54.9041 40.7364 53.1053C38.9376 51.3064 36.4751 50.8524 35.2365 52.0911C33.9978 53.3298 34.4519 55.7922 36.2508 57.591C38.0497 59.3899 40.5121 59.8439 41.7508 58.6052Z" fill="#FFE57F"/>
<defs>
<filter id="filter0_d_2044_446" x="0.672363" y="2.06934" width="92.6553" height="83.0049" filterUnits="userSpaceOnUse" color-interpolation-filters="sRGB">
<feFlood flood-opacity="0" result="BackgroundImageFix"/>
<feColorMatrix in="SourceAlpha" type="matrix" values="0 0 0 0 0 0 0 0 0 0 0 0 0 0 0 0 0 0 127 0" result="hardAlpha"/>
<feOffset dx="-4" dy="6"/>
<feGaussianBlur stdDeviation="2"/>
<feComposite in2="hardAlpha" operator="out"/>
<feColorMatrix type="matrix" values="0 0 0 0 0 0 0 0 0 0 0 0 0 0 0 0 0 0 0.25 0"/>
<feBlend mode="normal" in2="BackgroundImageFix" result="effect1_dropShadow_2044_446"/>
<feBlend mode="normal" in="SourceGraphic" in2="effect1_dropShadow_2044_446" result="shape"/>
</filter>
</defs>
</svg>
