<svg width="98" height="86" viewBox="0 0 98 86" fill="none" xmlns="http://www.w3.org/2000/svg">
<g filter="url(#filter0_d_2043_441)">
<path d="M45.0604 3.81037C48.6798 1.48848 53.3202 1.48848 56.9396 3.81037L88.266 23.9069C92.6085 26.6928 94.4314 32.1224 92.6497 36.9643L81.2758 67.873C79.6838 72.1995 75.5627 75.0742 70.9526 75.0742H31.0474C26.4373 75.0742 22.3162 72.1995 20.7242 67.873L9.35036 36.9643C7.56863 32.1224 9.39148 26.6928 13.734 23.9069L45.0604 3.81037Z" fill="white"/>
</g>
<path d="M53.3065 26.6284C48.0752 30.1377 46.0408 37.0659 44.8158 38.0034C41.9346 40.2034 36.6908 40.4659 33.4408 46.1784C30.544 51.2721 32.7596 55.719 35.0127 57.7627C37.2658 59.8065 41.7752 58.2346 41.7752 58.2346C41.7752 58.2346 49.1658 53.9377 49.1658 53.519C49.1658 53.1002 54.2502 45.6002 56.6096 43.1909C58.969 40.7815 68.194 36.2721 68.194 36.2721C68.194 36.2721 69.8502 29.1471 69.4533 28.044C68.9783 26.7315 61.744 20.9659 53.3065 26.6284Z" fill="#F3AE38"/>
<path d="M53.2688 43.2504C49.6906 47.9879 49.4188 51.9129 45.0313 54.9941C40.6438 58.0754 35.0156 57.7598 35.0156 57.7598C35.0156 57.7598 38.0437 61.0348 43.8 59.691C50.2312 58.1879 52.1844 53.9535 54.3875 49.7191C55.35 47.8723 55.5438 47.0629 56.0031 46.6004C56.4656 46.1379 62.0469 43.9066 64.4344 42.2879C66.8219 40.6691 69.1063 37.6535 69.6313 34.241C70.2469 30.2379 69.4469 28.041 69.4469 28.041C69.4469 28.041 69.2188 33.2848 65.975 36.3566C62.3188 39.8254 55.4875 40.3191 53.2688 43.2504Z" fill="#D97A08"/>
<path d="M35.3344 46.1875C34.7251 47.1656 34.6626 47.9281 35.1969 48.2437C35.8001 48.6031 36.5626 47.8875 36.9376 47.2344C37.3126 46.5812 37.5688 45.6719 37.0751 45.3562C36.5219 45 35.8907 45.2969 35.3344 46.1875ZM38.9157 43.7344C39.3751 44.5062 40.3407 44.1312 41.1907 43.5562C42.0407 42.9812 42.5751 42.2719 42.2376 41.7156C41.9001 41.1625 40.8344 41.4969 40.1407 41.9719C39.4501 42.45 38.4813 43.0031 38.9157 43.7344ZM47.6563 38.0187C48.3188 38.4375 48.9844 37.7219 49.5376 36.7906C50.0907 35.8625 50.4407 34.85 49.7907 34.4781C49.1813 34.1281 48.5438 34.5812 47.8844 35.7969C47.1344 37.1812 47.1251 37.6812 47.6563 38.0187Z" fill="#F7C875"/>
<path d="M35.9062 55.1686C36.1125 55.7998 36.9281 55.7092 37.4812 55.5373C38.3875 55.2561 38.7343 54.6998 38.6187 54.2342C38.5031 53.7686 37.7218 53.603 36.9562 53.928C36.4656 54.1373 35.7031 54.5436 35.9062 55.1686ZM40.1187 53.7998C40.5343 54.3467 41.2468 54.2311 42.3375 53.3936C43.1843 52.7436 43.5187 51.8655 43.1437 51.4123C42.7687 50.9592 42.35 51.3217 41.4375 51.9998C40.5906 52.628 39.775 53.3498 40.1187 53.7998ZM40.9875 50.0405C41.3437 50.5936 42.1812 50.378 43.0375 49.6905C43.8343 49.0498 44.1531 48.3967 43.6656 47.8717C43.2 47.3686 42.3937 48.0873 41.9656 48.4248C41.4437 48.8373 40.5625 49.3811 40.9875 50.0405ZM45.0656 49.2342C44.3031 49.9561 43.8218 50.6155 44.4125 51.1217C45.0031 51.628 45.8812 50.7873 46.2437 50.4436C46.6062 50.0967 47.4 49.2467 46.8718 48.6655C46.3468 48.0873 45.4281 48.8905 45.0656 49.2342ZM47.3781 43.528C46.875 44.1467 46.1281 44.9123 46.4843 45.4061C46.8562 45.9186 47.775 45.7373 48.575 44.7123C49.0781 44.0655 49.2531 43.1561 48.8187 42.7811C48.3875 42.4061 47.8218 42.9842 47.3781 43.528ZM52.7812 39.5811C53.0906 40.2936 54.1906 39.9248 55.0031 39.4498C55.8156 38.9717 56.475 38.3436 56.1906 37.7873C55.9312 37.278 55.0218 37.3092 54.0687 37.878C53.1125 38.4436 52.5156 38.9717 52.7812 39.5811ZM59.3843 36.9748C59.7187 37.553 60.5062 37.3561 61.3937 36.6936C62.2656 36.0436 62.6593 35.4248 62.2656 34.8655C61.8687 34.3061 61.1656 34.8061 60.3593 35.3842C59.575 35.9405 59.0593 36.4186 59.3843 36.9748ZM63.35 34.8748C63.8 35.2998 64.4968 34.9092 65.1875 34.178C65.9125 33.4123 66.0906 32.803 65.7437 32.428C65.4 32.053 64.775 32.303 63.9625 33.1561C63.2093 33.9467 62.9625 34.5092 63.35 34.8748ZM63.4968 29.8186C62.8625 30.6342 62.1718 31.2748 62.7687 31.7998C63.2156 32.1936 64.0968 31.6998 64.7062 30.8905C65.2531 30.1623 65.4125 29.0967 64.9 28.8717C64.3875 28.6498 64.0843 29.0655 63.4968 29.8186ZM66.6062 29.6967C66.3625 30.5592 65.8531 31.0873 66.3562 31.5436C66.95 32.0873 67.775 31.378 68.0687 30.0936C68.3375 28.9092 68.1093 28.3498 67.525 28.3717C66.9406 28.3905 66.8062 28.9967 66.6062 29.6967Z" fill="#D97A08"/>
<defs>
<filter id="filter0_d_2043_441" x="0.672363" y="2.06934" width="92.6553" height="83.0049" filterUnits="userSpaceOnUse" color-interpolation-filters="sRGB">
<feFlood flood-opacity="0" result="BackgroundImageFix"/>
<feColorMatrix in="SourceAlpha" type="matrix" values="0 0 0 0 0 0 0 0 0 0 0 0 0 0 0 0 0 0 127 0" result="hardAlpha"/>
<feOffset dx="-4" dy="6"/>
<feGaussianBlur stdDeviation="2"/>
<feComposite in2="hardAlpha" operator="out"/>
<feColorMatrix type="matrix" values="0 0 0 0 0 0 0 0 0 0 0 0 0 0 0 0 0 0 0.25 0"/>
<feBlend mode="normal" in2="BackgroundImageFix" result="effect1_dropShadow_2043_441"/>
<feBlend mode="normal" in="SourceGraphic" in2="effect1_dropShadow_2043_441" result="shape"/>
</filter>
</defs>
</svg>
