<svg width="98" height="86" viewBox="0 0 98 86" fill="none" xmlns="http://www.w3.org/2000/svg">
<g filter="url(#filter0_d_2043_428)">
<path d="M45.0604 3.81037C48.6798 1.48848 53.3202 1.48848 56.9396 3.81037L88.266 23.9069C92.6085 26.6928 94.4314 32.1224 92.6497 36.9643L81.2758 67.873C79.6838 72.1995 75.5627 75.0742 70.9526 75.0742H31.0474C26.4373 75.0742 22.3162 72.1995 20.7242 67.873L9.35036 36.9643C7.56863 32.1224 9.39148 26.6928 13.734 23.9069L45.0604 3.81037Z" fill="white"/>
</g>
<path d="M40.5085 54.2404L36.7322 52.5809C36.7322 52.5809 36.566 53.4893 36.1444 53.9762C35.6694 54.5225 34.856 54.8164 34.856 54.8164C34.856 54.8164 35.2983 55.327 35.328 55.4487C35.3577 55.5704 36.3581 58.9637 36.3581 58.9637C36.3581 58.9637 37.1449 59.4773 37.3883 59.6614C37.6317 59.8454 38.2374 59.9939 38.5402 59.51C38.843 59.0261 39.3388 58.3373 39.7217 57.8742C40.1641 57.3368 40.6272 56.9895 40.6272 56.9895C40.6272 56.9895 42.358 57.7228 44.7508 57.7228C47.1436 57.7228 49.8392 56.6926 52.9 54.3918C55.9608 52.0911 59.4224 48.674 60.3308 47.9467C61.2392 47.2193 63.1392 45.8478 64.0803 45.6073C65.0214 45.3668 65.8081 45.5479 65.8081 46.1536C65.8081 46.7592 65.4133 47.1243 65.7161 47.3351C66.0189 47.5459 67.0194 46.7295 67.0194 46.6375C67.0194 46.5454 66.9274 43.7607 66.9274 43.7607L64.2881 42.0478C64.2881 42.0478 65.0096 41.1364 65.6241 40.3675C66.105 39.7648 66.865 38.9751 66.865 38.9751C66.865 38.9751 66.8947 37.9153 66.7136 38.0043C66.5325 38.0934 58.9889 40.7297 57.4422 42.0626C55.8955 43.3956 49.7175 49.3331 49.6285 49.3628C49.5394 49.3925 40.5085 54.2404 40.5085 54.2404Z" fill="#307B32"/>
<path d="M34.8587 54.8068C34.4728 54.9878 33.3239 55.3857 33.3862 56.2021C33.4456 57.0185 34.2472 57.5588 34.9062 57.9982C35.5623 58.4375 36.3609 58.9689 36.3609 58.9689C36.3609 58.9689 37.6345 58.4257 37.6939 57.1224C37.7236 56.4574 37.0289 56.0002 36.5717 55.5786C36.1145 55.1571 35.5297 54.4832 35.5297 54.4832C35.5297 54.4832 35.2684 54.6168 34.8587 54.8068ZM44.2162 26.001C44.2192 26.1494 45.8075 25.9386 46.5289 26.6452C47.2325 27.3339 47.467 28.6639 46.324 30.3621C45.1811 32.0602 42.3429 35.4564 40.9684 37.1843C39.5939 38.9121 36.4292 42.6557 35.874 46.426C35.2922 50.3774 35.9958 53.2719 38.0561 54.9997C40.1164 56.7275 42.9337 57.8764 47.5976 55.9705C51.3412 54.4386 53.5351 51.458 57.0501 48.608C60.5651 45.758 62.7769 44.336 64.8669 44.2469C66.9569 44.1549 66.9865 45.761 66.7134 46.3369C66.4403 46.9128 65.8169 47.4205 66.0484 47.3374C66.3334 47.2335 67.2894 46.9425 67.7762 45.6422C68.2601 44.3389 67.6248 42.7655 66.2325 42.1599C64.8401 41.5543 61.8387 42.1302 59.5083 43.3711C57.1748 44.6121 54.7226 46.4319 54.3872 46.7021C54.0547 46.9752 53.3867 46.7614 53.9626 46.0964C54.5386 45.4314 57.5994 42.5814 60.9897 41.0971C64.38 39.6127 66.8678 38.9774 66.8678 38.9774C66.8678 38.9774 67.8979 37.9769 68.2008 37.7038C68.5036 37.4307 68.9578 37.2199 68.8984 36.9171C68.839 36.6143 67.4526 36.1927 65.5794 37.2971C65.5734 37.3 52.1754 38.3421 52.1754 38.0986C52.1754 37.8552 53.9389 26.3424 53.9092 25.9178C53.8795 25.4933 53.7162 25.1875 53.4639 25.3478C53.2353 25.4933 52.3714 26.7877 51.9944 27.2805C51.6678 27.705 51.175 28.281 51.1453 28.1889C51.1156 28.0969 50.9108 25.3864 49.3551 24.5522C46.7486 23.1599 44.1984 25.3894 44.2162 26.001Z" fill="#649726"/>
<path d="M45.8702 44.123C44.9024 45.3639 37.6616 47.8785 37.6616 47.8785C37.6616 47.8785 38.0357 45.4827 39.3568 42.8197C41.4497 38.6041 48.0493 33.0436 49.6554 29.6414C50.6083 27.6227 50.2313 26.0671 49.4446 25.1883C48.6579 24.3096 47.883 24.1077 47.883 24.1077C47.883 24.1077 50.1422 24.0394 50.9913 26.1294C51.8404 28.2194 51.113 29.7038 51.113 29.7038C51.113 29.7038 52.1135 28.5222 52.7785 27.5544C53.4435 26.5836 53.868 25.6752 53.868 25.6752C53.868 25.6752 54.3222 26.7053 54.0194 28.2491C53.7166 29.7928 53.2921 30.6419 53.2921 30.6419L45.8702 44.123Z" fill="#307B32"/>
<path d="M60.9869 25.402C60.9869 25.402 61.5688 24.4074 62.6524 24.2798C63.9557 24.1284 64.683 24.8854 64.683 24.8854C64.683 24.8854 65.7963 23.7038 67.2094 24.6004C68.5127 25.4287 67.7794 26.8953 67.7794 26.8953C67.7794 26.8953 68.866 27.1535 68.8393 28.537C68.8125 29.8551 67.9872 30.3687 67.9872 30.3687L62.3229 38.0637L58.4457 40.881L56.326 42.2437L52.2677 45.061L43.3021 51.7259C43.3021 51.7259 40.0543 53.6081 38.4244 51.8179C37.516 50.8174 37.4536 49.6359 37.516 48.8195C37.605 47.6112 37.8485 47.0234 38.3947 46.397C39.1072 45.5806 39.9088 45.3668 39.9088 45.3668C39.9088 45.3668 39.6179 44.1259 40.4491 42.879C41.2744 41.644 42.545 41.7628 42.545 41.7628C42.545 41.7628 42.5005 40.0587 43.4713 39.1799C44.4599 38.2834 45.0002 38.702 45.0596 38.5506C45.1189 38.3992 44.9141 37.3631 46.0957 36.3121C46.9447 35.5581 48.0877 35.7629 48.0877 35.7629C48.0877 35.7629 47.868 34.3409 48.9843 33.2484C50.1569 32.0995 51.2672 32.7645 51.2672 32.7645C51.2672 32.7645 51.0564 31.3543 51.8283 30.4904C52.7486 29.4632 53.6897 29.5285 53.6897 29.5285C53.6897 29.5285 53.8441 28.2579 54.8505 27.3851C55.6135 26.7201 56.9049 26.8299 56.9939 26.7082C57.083 26.5865 57.4897 25.4376 58.701 25.0428C59.9864 24.6212 60.9869 25.402 60.9869 25.402Z" fill="#FFC01E"/>
<path d="M65.7547 31.1491C65.7547 31.1491 65.5974 32.4791 65.1431 33.0699C64.3208 34.1416 63.5103 33.9457 63.5103 33.9457C63.5103 33.9457 63.8606 35.3024 63.0739 36.2613C62.1952 37.3301 60.9305 37.1935 60.9305 37.1935C60.9305 37.1935 60.9988 38.3484 60.3575 39.0045C59.3956 39.9901 58.6238 39.7941 58.6238 39.7941C58.6238 39.7941 58.6238 40.4295 58.125 41.038C58.0152 41.1716 61.3402 39.1113 62.397 38.6066C63.4539 38.099 65.5855 37.2974 65.5855 37.2974C65.5855 37.2974 66.7878 36.5582 67.0847 35.5874C67.3816 34.6166 67.1916 33.7913 67.2747 33.4974C67.3578 33.2035 67.907 32.8413 68.1624 31.9982C68.4177 31.1551 68.1089 30.2645 68.1089 30.2645C68.1089 30.2645 67.8714 30.6712 67.251 30.9384C66.4702 31.2709 65.7547 31.1491 65.7547 31.1491ZM62.4624 26.4199C62.4624 26.4199 62.2308 26.8207 62.0824 27.076C61.9339 27.3284 61.7647 27.6668 61.7647 27.6668C61.7647 27.6668 61.3847 27.646 61.0671 27.6252C60.7494 27.6045 60.218 27.643 60.218 27.643C60.218 27.643 60.4703 27.2987 60.6396 27.0879C60.8088 26.8771 60.88 26.506 60.88 26.506C60.88 26.506 61.1769 26.5476 61.5985 26.5268C62.017 26.503 62.4624 26.4199 62.4624 26.4199ZM41.2388 48.0235C41.2388 48.0235 41.3011 47.2427 41.3219 46.9043C41.3427 46.5659 41.2596 45.9751 41.2596 45.9751C41.2596 45.9751 42.6964 45.8059 43.2872 44.7935C43.878 43.7812 43.7741 43.042 43.7741 43.042C43.7741 43.042 45.2733 43.2943 46.0956 41.8159C46.918 40.3374 46.3688 39.5359 46.4964 39.5982C46.6241 39.6605 48.0817 39.4705 48.8417 38.3513C49.6017 37.2321 49.4117 36.6413 49.4117 36.6413C49.4117 36.6413 50.6794 36.5582 51.291 35.629C51.9025 34.6998 51.7541 33.7705 51.7541 33.7705C51.7541 33.7705 53.0306 33.723 53.7045 32.963C54.3814 32.203 54.4913 30.971 54.4913 30.971C54.4913 30.971 55.1889 31.1224 56.3081 30.4901C57.4274 29.8577 57.7272 28.596 57.7272 28.596C57.7272 28.596 58.1161 28.6732 58.4753 28.6198C58.9177 28.5545 59.1671 28.403 59.1671 28.403C59.1671 28.403 58.9355 28.6198 58.7722 29.2462C58.6535 29.7004 58.5911 30.1398 58.5911 30.1398C58.5911 30.1398 57.5966 29.7034 56.5842 31.0274C55.9697 31.8349 55.9994 32.7968 55.9994 32.7968C55.9994 32.7968 55.0316 32.6246 54.1617 33.6845C53.3602 34.6582 53.5056 35.4598 53.5056 35.4598C53.5056 35.4598 52.3864 35.3529 51.5849 36.4098C50.7091 37.5616 50.9733 38.7313 50.9733 38.7313C50.9733 38.7313 49.581 38.5829 48.9041 39.4705C48.2272 40.3582 48.3341 41.5398 48.3341 41.5398C48.3341 41.5398 47.3366 41.424 46.538 42.3859C45.8196 43.2527 45.9264 43.8643 45.9264 43.8643C45.9264 43.8643 44.6588 43.8435 43.8572 44.9004C43.0556 45.9573 43.0556 47.1804 43.0556 47.1804C43.0556 47.1804 42.4856 47.222 42.0433 47.4327C41.598 47.6435 41.2388 48.0235 41.2388 48.0235ZM45.0803 49.2051C45.0803 49.2051 46.158 49.4782 46.918 48.2551C47.678 47.029 47.6364 45.9543 47.6364 45.9543C47.6364 45.9543 48.8388 45.9959 49.5572 45.0666C50.2756 44.1374 50.3142 42.941 50.3142 42.941C50.3142 42.941 51.4305 42.9855 52.1756 41.8574C52.7813 40.943 52.7872 40.0198 52.7872 40.0198C52.7872 40.0198 53.6956 39.8505 54.4141 38.9837C55.1325 38.1168 54.9841 36.9145 54.9841 36.9145C54.9841 36.9145 56.231 36.9976 56.9494 35.8576C57.6678 34.7176 57.4778 34.0199 57.4778 34.0199C57.4778 34.0199 58.4189 34.1476 59.2442 33.1115C60.0666 32.0754 59.7163 31.1877 59.7163 31.1877C59.7163 31.1877 60.9839 31.4609 61.7647 30.5762C62.5455 29.6885 62.6227 28.6198 62.6939 28.6346C63.1096 28.7118 64.208 28.2249 64.208 28.2249C64.208 28.2249 64.1011 29.1541 64.1456 29.7271C64.1516 29.7924 62.9671 29.6915 62.2071 30.9591C61.4471 32.2268 61.7439 33.0699 61.7439 33.0699C61.7439 33.0699 60.6366 33.1738 60.1081 34.1238C59.5797 35.0738 59.7608 36.1307 59.7608 36.1307C59.7608 36.1307 58.7574 35.7715 57.9439 36.8491C57.4125 37.5527 57.4155 38.3484 57.4155 38.3484C57.4155 38.3484 56.2903 37.903 55.4353 39.328C54.8119 40.3671 55.091 41.5368 55.091 41.5368C55.091 41.5368 54.0133 41.4745 53.1494 42.466C52.2825 43.4576 52.2647 45.0577 52.2647 45.0577C52.2647 45.0577 50.2133 46.7974 48.3756 48.2343C46.8735 49.407 43.1506 51.8384 43.2961 51.7255C43.9017 51.2476 44.2164 50.9418 44.5756 50.4341C44.9349 49.9295 45.0803 49.2051 45.0803 49.2051Z" fill="#F99628"/>
<path d="M59.1463 25.743C58.6357 25.5293 58.0479 25.7222 57.8786 26.4614C57.7629 26.9661 57.8786 27.3907 58.321 27.5807C58.8168 27.7914 59.2027 27.3729 59.3779 27.0107C59.6302 26.4822 59.5471 25.9122 59.1463 25.743ZM56.2725 27.646C55.9163 27.3639 55.1949 27.5391 54.8357 28.3229C54.4765 29.1066 54.6427 29.831 55.2988 29.8636C56.1686 29.9052 57.0771 28.2783 56.2725 27.646ZM53.1702 30.4544C52.811 30.2288 52.1252 30.3772 51.7986 31.0868C51.5463 31.636 51.6591 32.2505 52.0718 32.4375C52.4933 32.6275 53.0485 32.3425 53.3394 31.7607C53.5918 31.256 53.6749 30.7691 53.1702 30.4544ZM50.6765 33.2629C50.1421 32.8977 49.4296 33.1797 48.9872 33.8744C48.5449 34.5721 48.5865 35.3736 49.008 35.626C49.4296 35.8783 50.2282 35.7061 50.6972 34.9283C51.1218 34.2336 51.1425 33.5775 50.6765 33.2629ZM47.488 36.6205C47.108 36.3177 46.3896 36.5374 46.0719 37.1282C45.7543 37.7189 45.9324 38.1524 46.2619 38.3958C46.6627 38.6927 47.1496 38.5443 47.5504 38.0158C47.9511 37.4874 47.8057 36.8729 47.488 36.6205ZM45.1843 39.4675C44.8636 39.1766 44.1482 39.2568 43.7682 39.8268C43.3882 40.3968 43.5158 40.9668 43.9166 41.2191C44.3174 41.4714 44.8874 41.1568 45.1843 40.7975C45.4782 40.4383 45.6266 39.8683 45.1843 39.4675ZM41.9988 42.8668C41.5654 42.5729 40.9627 42.9083 40.7519 43.2468C40.5411 43.5852 40.5204 44.0691 40.9419 44.3868C41.3635 44.7044 41.9543 44.4699 42.168 44.1552C42.3788 43.8375 42.5896 43.2675 41.9988 42.8668ZM44.0472 45.8919C43.78 46.4025 43.8365 46.8835 44.1749 47.1804C44.5133 47.4772 45.1041 47.308 45.4633 46.738C45.6474 46.4441 45.7157 45.8088 45.2733 45.5119C44.828 45.215 44.258 45.4882 44.0472 45.8919ZM47.1704 43.315C46.8379 43.7455 46.8735 44.265 47.1704 44.5411C47.4672 44.8143 48.2065 44.648 48.4796 44.2027C48.7111 43.8227 48.6696 43.3804 48.3311 43.0835C48.064 42.846 47.5296 42.8489 47.1704 43.315ZM49.6018 41.1597C49.9936 41.4596 50.531 41.2666 50.7833 41.0113C51.0357 40.756 51.2702 40.1652 50.9318 39.7852C50.5933 39.4052 49.961 39.5329 49.6018 39.9129C49.2425 40.2958 49.2425 40.8866 49.6018 41.1597ZM51.9857 36.6621C51.6472 37.1964 51.4988 38.0989 52.0925 38.4136C52.7249 38.7521 53.4018 38.0544 53.6986 37.5675C53.9955 37.0807 53.9955 36.386 53.5086 36.1099C52.9654 35.8071 52.3865 36.0297 51.9857 36.6621ZM54.3933 34.2129C54.0163 34.8096 53.8233 35.5636 54.3102 35.9436C54.7258 36.2702 55.4502 35.9021 55.851 35.3321C56.2518 34.7621 56.3379 34.1297 55.8925 33.726C55.4502 33.3252 54.7525 33.6429 54.3933 34.2129ZM56.8871 31.3629C56.5308 31.7755 56.424 32.3752 56.804 32.7136C57.184 33.0521 57.6916 33.0105 58.0924 32.5029C58.4932 31.9952 58.4724 31.4252 58.03 31.1313C57.6352 30.87 57.1602 31.0452 56.8871 31.3629Z" fill="#FBE36A"/>
<defs>
<filter id="filter0_d_2043_428" x="0.672363" y="2.06934" width="92.6553" height="83.0049" filterUnits="userSpaceOnUse" color-interpolation-filters="sRGB">
<feFlood flood-opacity="0" result="BackgroundImageFix"/>
<feColorMatrix in="SourceAlpha" type="matrix" values="0 0 0 0 0 0 0 0 0 0 0 0 0 0 0 0 0 0 127 0" result="hardAlpha"/>
<feOffset dx="-4" dy="6"/>
<feGaussianBlur stdDeviation="2"/>
<feComposite in2="hardAlpha" operator="out"/>
<feColorMatrix type="matrix" values="0 0 0 0 0 0 0 0 0 0 0 0 0 0 0 0 0 0 0.25 0"/>
<feBlend mode="normal" in2="BackgroundImageFix" result="effect1_dropShadow_2043_428"/>
<feBlend mode="normal" in="SourceGraphic" in2="effect1_dropShadow_2043_428" result="shape"/>
</filter>
</defs>
</svg>
