<svg width="98" height="86" viewBox="0 0 98 86" fill="none" xmlns="http://www.w3.org/2000/svg">
<g filter="url(#filter0_d_2043_439)">
<path d="M45.0604 3.81037C48.6798 1.48848 53.3202 1.48848 56.9396 3.81037L88.266 23.9069C92.6085 26.6928 94.4314 32.1224 92.6497 36.9643L81.2758 67.873C79.6838 72.1995 75.5627 75.0742 70.9526 75.0742H31.0474C26.4373 75.0742 22.3162 72.1995 20.7242 67.873L9.35036 36.9643C7.56863 32.1224 9.39148 26.6928 13.734 23.9069L45.0604 3.81037Z" fill="white"/>
</g>
<path d="M56.8336 39.5565V32.5472L52.7125 30.655C48.1438 36.0909 46.4359 50.2503 35.375 50.2503C34.2147 50.2503 33.1019 50.7112 32.2814 51.5317C31.4609 52.3522 31 53.465 31 54.6253C31 55.7856 31.4609 56.8984 32.2814 57.7189C33.1019 58.5394 34.2147 59.0003 35.375 59.0003C51.9875 59.0003 64.332 49.4011 68.1234 42.5675L65.2289 39.5565H56.8336ZM67.075 29.5276C69.5875 24.8526 68.2797 21.069 66.8297 19.2347C66.7744 19.1661 66.7052 19.1099 66.6266 19.07C66.5481 19.03 66.462 19.0071 66.374 19.0027C66.286 18.9984 66.1981 19.0127 66.116 19.0447C66.0339 19.0767 65.9595 19.1258 65.8977 19.1886L64.1086 20.9854C64.0059 21.0898 63.9428 21.2267 63.9301 21.3726C63.9174 21.5184 63.9559 21.6641 64.0391 21.7847C64.575 22.594 65.3711 24.5269 63.9297 27.4347C62.5214 26.819 61.0011 26.5009 59.4641 26.5003C57.2766 26.5003 55.2453 27.1675 53.5 28.2651L59.3336 30.944V37.0565H66.2938L70.5656 41.5003C70.8203 40.5144 71 39.4979 71 38.4292C71.0015 36.754 70.6532 35.0969 69.9773 33.564C69.3015 32.0312 68.3129 30.6564 67.075 29.5276Z" fill="#25855F"/>
<defs>
<filter id="filter0_d_2043_439" x="0.672363" y="2.06934" width="92.6553" height="83.0049" filterUnits="userSpaceOnUse" color-interpolation-filters="sRGB">
<feFlood flood-opacity="0" result="BackgroundImageFix"/>
<feColorMatrix in="SourceAlpha" type="matrix" values="0 0 0 0 0 0 0 0 0 0 0 0 0 0 0 0 0 0 127 0" result="hardAlpha"/>
<feOffset dx="-4" dy="6"/>
<feGaussianBlur stdDeviation="2"/>
<feComposite in2="hardAlpha" operator="out"/>
<feColorMatrix type="matrix" values="0 0 0 0 0 0 0 0 0 0 0 0 0 0 0 0 0 0 0.25 0"/>
<feBlend mode="normal" in2="BackgroundImageFix" result="effect1_dropShadow_2043_439"/>
<feBlend mode="normal" in="SourceGraphic" in2="effect1_dropShadow_2043_439" result="shape"/>
</filter>
</defs>
</svg>
