<svg width="98" height="86" viewBox="0 0 98 86" fill="none" xmlns="http://www.w3.org/2000/svg">
<g filter="url(#filter0_d_2044_447)">
<path d="M45.0604 3.81037C48.6798 1.48848 53.3202 1.48848 56.9396 3.81037L88.266 23.9069C92.6085 26.6928 94.4314 32.1224 92.6497 36.9643L81.2758 67.873C79.6838 72.1995 75.5627 75.0742 70.9526 75.0742H31.0474C26.4373 75.0742 22.3162 72.1995 20.7242 67.873L9.35036 36.9643C7.56863 32.1224 9.39148 26.6928 13.734 23.9069L45.0604 3.81037Z" fill="white"/>
</g>
<path d="M50.4248 21.1373C50.4248 21.1373 48.2092 19.5685 48.0342 20.331C47.8592 21.0935 48.1654 22.6185 47.5217 23.6154C46.8779 24.6123 45.9967 25.081 45.2936 25.3154C44.5904 25.5498 36.9654 28.4248 34.6779 36.0498C32.3904 43.6748 35.9092 50.181 41.2779 53.2967C45.6779 55.8498 48.5811 55.4685 48.5811 55.4685C48.5811 55.4685 47.9936 55.9967 47.7592 56.056C47.5248 56.1154 46.7342 56.1435 46.3529 56.2029C45.9717 56.2623 44.6217 56.731 44.7404 57.0842C44.8592 57.4373 46.0311 56.9373 46.5311 56.8498C47.0311 56.7623 47.8811 56.7029 48.0561 56.6154C48.2311 56.5279 49.0811 55.9404 49.0811 55.9404C49.0811 55.9404 48.7592 56.8217 48.4654 57.1435C48.1717 57.4654 48.7279 57.906 49.3748 57.731C50.0217 57.556 50.4904 56.031 50.4904 56.031C50.4904 56.031 50.5186 56.9404 50.5186 57.2342C50.5186 57.5279 50.4311 57.9967 50.5467 58.1154C50.6654 58.2342 51.5436 58.3779 51.8092 58.2342C52.0748 58.0904 52.0154 57.4998 52.0154 57.4998C52.0154 57.4998 52.8061 57.9998 53.3061 58.2623C53.8061 58.5248 54.3029 58.7904 54.4779 58.556C54.6529 58.3217 54.5061 57.8529 54.3311 57.7342C54.1561 57.6154 53.5404 57.3248 53.4217 57.1467C53.3029 56.9717 53.0686 56.4435 53.0686 56.4435C53.0686 56.4435 53.7436 55.9748 54.0373 56.0342C54.3311 56.0935 55.0936 56.9154 55.5029 57.0904C55.9123 57.2654 56.7342 57.8248 57.0279 57.7342C57.3217 57.6467 57.5279 57.381 57.4092 57.2342C57.2904 57.0873 56.3248 56.6185 56.0904 56.3842C55.8561 56.1498 54.9467 55.4154 54.9467 55.4154C54.9467 55.4154 59.5186 54.6529 62.5717 51.7654C66.0779 48.4498 69.6342 41.2185 66.2217 34.2123C62.9654 27.5248 56.6311 25.456 54.4748 24.7092C53.3592 24.3217 53.1561 23.7404 53.0217 22.9498C52.8904 22.1592 52.8029 19.9154 52.1873 19.781C51.5717 19.6467 50.4248 21.1373 50.4248 21.1373Z" fill="url(#paint0_radial_2044_447)"/>
<path d="M49.4282 22.5879C49.897 22.6316 49.6751 21.7972 50.3813 21.6941C50.9813 21.6066 51.0251 22.4722 51.4063 22.3254C51.7876 22.1785 51.6532 21.066 51.7157 20.4629C51.7751 19.8754 52.1845 19.7722 52.1845 19.7722C52.1845 19.7722 51.8938 19.4504 51.2782 19.6254C50.6626 19.8004 50.4282 20.5941 50.4282 20.5941C50.4282 20.5941 49.8407 19.5691 49.022 19.6566C48.2626 19.7379 48.0845 20.2441 48.0845 20.2441C48.0845 20.2441 48.672 20.2722 48.847 20.7129C49.022 21.1535 48.8001 22.5285 49.4282 22.5879Z" fill="#D17759"/>
<path d="M51.5999 29.2471C51.7749 30.3471 53.2593 35.8628 53.3312 39.6878C53.4187 44.469 52.8624 47.7003 52.4062 49.8659C51.8937 52.3003 51.3499 54.2221 51.3499 54.2221L52.7124 52.5065C52.7124 52.5065 53.8562 48.519 54.2093 44.7628C54.5187 41.4596 54.253 37.4159 53.4187 33.5003C52.5812 29.5846 51.9374 26.7815 51.7905 25.4471C51.6843 24.4815 51.528 22.969 51.528 22.969C51.528 22.969 52.453 24.9315 53.0968 25.8721C53.6749 26.7159 55.0905 28.569 56.4999 31.3846C58.0749 34.5315 59.1687 38.8346 58.9937 42.3534C58.8187 45.8721 58.1718 48.4971 57.4687 49.8628C56.7655 51.2253 54.828 53.1628 54.828 53.1628L53.903 53.9534C53.903 53.9534 56.3218 53.2065 57.2468 51.7971C58.1718 50.3878 60.0468 47.544 59.9593 41.8253C59.8718 36.1065 58.3155 32.8784 57.203 30.5909C56.3155 28.769 53.4843 25.0034 53.4843 25.0034C53.4843 25.0034 57.9343 28.2065 59.0187 29.1878C61.7468 31.6503 63.828 34.6128 64.1499 40.0534C64.3905 44.1128 63.2687 46.7846 62.0374 48.544C60.8062 50.3034 58.4593 52.8565 58.4593 52.8565L62.0968 49.894C62.0968 49.894 65.4687 46.4784 65.1624 40.0096C64.8562 33.5409 61.7749 30.5378 59.8843 28.7909C58.2687 27.3003 55.2749 25.4159 54.0624 24.7003C53.028 24.0909 52.7999 23.5128 52.6687 23.0284C52.5374 22.544 52.2718 22.5596 52.2718 22.5596L48.7812 22.8815L48.4437 22.7315C48.4437 22.7315 46.7874 25.319 45.0843 26.5346C43.8124 27.444 40.6874 29.5409 38.6062 32.6784C36.4968 35.8596 36.2437 39.219 36.5249 42.5909C36.8187 46.1096 38.4593 49.9971 41.5843 51.9315C44.7093 53.8659 48.578 54.394 48.578 54.394C48.578 54.394 46.1624 53.5065 44.9405 53.0003C43.5905 52.444 41.8905 51.6815 40.2624 49.7753C38.8812 48.1596 36.6187 44.1003 37.3155 38.7784C37.8155 34.9659 39.5124 32.2753 41.7155 30.244C44.0187 28.119 45.203 27.3503 45.778 26.8721C47.0968 25.7721 48.2718 24.019 48.2718 24.019C48.2718 24.019 48.8093 23.5128 48.3593 24.4815C47.9749 25.3096 46.6155 27.1909 46.3562 27.5596C45.4093 28.9221 44.0624 30.0971 42.3593 34.5846C40.5999 39.2253 41.1124 43.3409 41.6843 45.494C42.2562 47.6503 43.003 49.4534 44.0905 50.8315C45.3999 52.494 48.403 54.2034 48.403 54.2034C48.403 54.2034 45.903 52.044 44.8843 50.5971C43.6218 48.8065 42.9687 46.8596 42.4218 44.5253C41.953 42.5315 41.7749 39.2221 43.1249 35.1096C44.1812 31.8971 44.9937 30.8346 46.0499 29.294C47.1062 27.7534 47.8155 26.8096 48.6968 25.3721C49.2124 24.5284 49.6999 23.1565 49.6999 23.1565L49.8968 23.0971C49.8968 23.0971 49.678 24.9003 49.4562 25.8253C49.2343 26.7503 49.003 28.2003 48.4312 29.7409C47.8593 31.2815 45.8562 35.4878 46.0249 40.3128C46.2312 46.1346 47.6812 49.6971 48.253 51.0628C48.8249 52.4284 49.7187 54.8315 49.7187 54.8315L50.2187 53.0878C50.2187 53.0878 47.9905 48.4971 47.3749 44.669C46.8187 41.2096 46.7749 38.8753 47.1999 36.2503C47.4687 34.5971 49.1062 30.6346 49.4155 29.4909C49.7249 28.3471 50.1187 26.5284 50.2062 26.0003L50.6687 24.0565L51.5999 29.2471Z" fill="url(#paint1_radial_2044_447)"/>
<path d="M42.1845 31.1532C41.4501 30.9782 40.7782 31.7094 40.0438 33.0001C39.3563 34.2094 39.0126 35.5594 39.9563 35.8157C40.9251 36.0782 41.8626 34.1719 42.1282 33.3813C42.3907 32.5907 42.7376 31.2844 42.1845 31.1532ZM44.2657 33.4407C43.5313 35.3876 43.4157 36.9001 44.0907 37.1376C44.7657 37.3719 45.9095 35.1438 46.2313 34.1157C46.5532 33.0907 47.0813 31.0938 46.3501 30.8594C45.6157 30.6251 44.7657 32.1188 44.2657 33.4407ZM48.5501 35.4063C48.2938 36.6844 48.4032 37.3407 48.9907 37.4594C49.5782 37.5782 49.8126 36.1969 49.9001 35.5813C49.9876 34.9657 50.2813 33.6751 49.6063 33.5282C48.9313 33.3813 48.7532 34.3782 48.5501 35.4063Z" fill="#FEEAC4"/>
<defs>
<filter id="filter0_d_2044_447" x="0.672363" y="2.06934" width="92.6553" height="83.0049" filterUnits="userSpaceOnUse" color-interpolation-filters="sRGB">
<feFlood flood-opacity="0" result="BackgroundImageFix"/>
<feColorMatrix in="SourceAlpha" type="matrix" values="0 0 0 0 0 0 0 0 0 0 0 0 0 0 0 0 0 0 127 0" result="hardAlpha"/>
<feOffset dx="-4" dy="6"/>
<feGaussianBlur stdDeviation="2"/>
<feComposite in2="hardAlpha" operator="out"/>
<feColorMatrix type="matrix" values="0 0 0 0 0 0 0 0 0 0 0 0 0 0 0 0 0 0 0.25 0"/>
<feBlend mode="normal" in2="BackgroundImageFix" result="effect1_dropShadow_2044_447"/>
<feBlend mode="normal" in="SourceGraphic" in2="effect1_dropShadow_2044_447" result="shape"/>
</filter>
<radialGradient id="paint0_radial_2044_447" cx="0" cy="0" r="1" gradientUnits="userSpaceOnUse" gradientTransform="translate(50.3236 19.367) scale(34.4591 34.4591)">
<stop offset="0.187" stop-color="#F2A05B"/>
<stop offset="0.225" stop-color="#F5AD68"/>
<stop offset="0.291" stop-color="#FECC88"/>
<stop offset="0.639" stop-color="#FECC88"/>
<stop offset="0.658" stop-color="#FECC88"/>
<stop offset="0.703" stop-color="#FCC581"/>
<stop offset="0.769" stop-color="#F7B16D"/>
<stop offset="0.814" stop-color="#F3A05C"/>
<stop offset="0.849" stop-color="#E6915B"/>
<stop offset="0.905" stop-color="#D77F59"/>
<stop offset="0.946" stop-color="#D17858"/>
</radialGradient>
<radialGradient id="paint1_radial_2044_447" cx="0" cy="0" r="1" gradientUnits="userSpaceOnUse" gradientTransform="translate(50.1034 22.2659) scale(30.1541 30.1541)">
<stop offset="0.486" stop-color="#F2A05B"/>
<stop offset="0.616" stop-color="#EE9B5B"/>
<stop offset="0.768" stop-color="#E38D5A"/>
<stop offset="0.922" stop-color="#D17759"/>
</radialGradient>
</defs>
</svg>
