<svg width="98" height="86" viewBox="0 0 98 86" fill="none" xmlns="http://www.w3.org/2000/svg">
<g filter="url(#filter0_d_2043_443)">
<path d="M45.0604 3.81037C48.6798 1.48848 53.3202 1.48848 56.9396 3.81037L88.266 23.9069C92.6085 26.6928 94.4314 32.1224 92.6497 36.9643L81.2758 67.873C79.6838 72.1995 75.5627 75.0742 70.9526 75.0742H31.0474C26.4373 75.0742 22.3162 72.1995 20.7242 67.873L9.35036 36.9643C7.56863 32.1224 9.39148 26.6928 13.734 23.9069L45.0604 3.81037Z" fill="white"/>
</g>
<path d="M68.7314 39.0128C68.7439 39.5065 68.7283 40.7597 67.4689 43.6534C65.8408 47.3878 63.9783 49.8722 62.7877 51.0597C61.5502 52.5534 57.7502 56.7347 51.3908 57.9784C49.9252 58.2659 42.8533 59.6722 37.797 55.3753C37.1252 54.7972 34.397 52.4128 34.1252 48.8753C34.0127 47.4097 34.3002 45.5003 35.0345 45.3347C35.9002 45.1378 36.3502 47.594 38.7783 49.3503C39.0814 49.569 41.7752 51.4597 45.1283 50.8159C48.1783 50.2315 49.9002 47.9097 50.5814 46.9909C52.122 44.9128 52.6408 42.6722 53.1845 40.3159C53.8127 37.6097 53.8658 35.4847 55.6252 33.6409C55.9564 33.294 56.2689 32.9722 56.7908 32.6909C58.5689 31.7347 60.5439 32.4534 63.3033 33.5034C65.947 34.5128 67.572 35.1565 68.322 36.8128C68.6939 37.6316 68.7158 38.3847 68.7314 39.0128Z" fill="#DE5323"/>
<path d="M56.8875 32.5629C57.5063 32.2411 58.4532 31.8598 59.8375 31.8723C60.1282 31.8754 60.4782 31.8879 60.8782 31.9317C61.2219 31.9692 62.5344 31.2036 62.8157 30.7536C63.0719 30.3442 63.2907 29.9098 63.5407 29.4504C63.8469 28.8911 64.3282 27.9286 64.3844 27.3817C64.5 26.2379 64.2563 24.9411 62.1907 25.2317C61.9344 25.2661 61.3375 25.6004 61.1657 25.1442C60.8157 24.2286 62.6844 23.5536 63.9375 24.1411C65.3344 24.7973 65.8719 26.5473 65.9469 26.9286C66.1375 27.8567 65.925 28.6286 65.5125 30.1286C65.3469 30.7348 65.2282 31.1879 65.1032 31.6723C64.9219 32.3848 65.2469 33.3036 65.4875 33.4442C66.9938 34.3098 67.7032 35.3286 68.0344 35.9223C68.5313 36.8129 68.9532 38.1629 68.6438 38.3629C68.4563 38.4848 68.0188 38.1692 67.8813 38.0692C67.4344 37.7442 67.4282 37.4817 67.1188 37.1848C66.6282 36.7129 65.8344 36.6067 65.2657 36.7161C64.4407 36.8754 64.3344 37.4911 63.8625 37.4067C63.3063 37.3098 63.4125 36.4348 62.4375 35.6786C61.9375 35.2879 61.4532 35.1661 61.3188 35.1348C60.9106 35.0425 60.4872 35.0403 60.0782 35.1286C59.3938 35.2754 59.3282 35.5567 58.7969 35.5754C58.35 35.5911 57.8032 35.4129 57.7375 35.1286C57.6782 34.8661 58.0719 34.7379 58.125 34.2536C58.1313 34.1973 58.1688 33.7942 57.9219 33.5411C57.7063 33.3223 57.3813 33.3192 56.8157 33.3161C56.2969 33.3129 56.0813 33.3879 56.0438 33.3036C55.9844 33.1629 56.4969 32.7661 56.8875 32.5629Z" fill="#DE5323"/>
<path d="M54.8657 45.7C54.7282 45.6906 54.5876 45.65 54.4657 45.5656C54.2858 45.4465 54.1604 45.2608 54.117 45.0494C54.0737 44.8379 54.1159 44.6179 54.2345 44.4375C54.847 43.5094 55.0314 42.0281 55.1814 40.8406C55.2689 40.1531 55.3439 39.5594 55.4845 39.0813C55.9532 37.5 57.0626 36.9969 57.1876 36.9469C57.2859 36.905 57.3915 36.8829 57.4983 36.8819C57.6051 36.8808 57.7111 36.9008 57.8102 36.9407C57.9093 36.9806 57.9996 37.0396 58.0759 37.1144C58.1521 37.1892 58.213 37.2783 58.2548 37.3766C58.2967 37.4749 58.3188 37.5804 58.3198 37.6873C58.3209 37.7941 58.3009 37.9001 58.261 37.9992C58.2211 38.0983 58.1621 38.1885 58.0873 38.2648C58.0125 38.3411 57.9234 38.4019 57.8251 38.4438C57.7814 38.4656 57.2845 38.7281 57.0439 39.5438C56.9407 39.8969 56.8689 40.4563 56.7939 41.0469C56.622 42.4031 56.4095 44.0938 55.5907 45.3375C55.4251 45.5844 55.147 45.7156 54.8657 45.7ZM52.0626 50.0281C51.9146 50.0232 51.7708 49.9778 51.6468 49.8968C51.5228 49.8158 51.4235 49.7023 51.3595 49.5688C51.1626 49.1625 51.3345 48.6781 51.7376 48.4813C52.2126 48.25 52.6876 47.4531 52.8751 47.0031C52.9162 46.9046 52.9762 46.8152 53.0518 46.7399C53.1274 46.6646 53.2171 46.605 53.3158 46.5643C53.4144 46.5237 53.5201 46.5029 53.6268 46.5031C53.7335 46.5034 53.8391 46.5246 53.9376 46.5656C54.0364 46.6064 54.1262 46.6662 54.2018 46.7417C54.2774 46.8172 54.3374 46.9068 54.3783 47.0055C54.4192 47.1042 54.4403 47.21 54.4403 47.3168C54.4403 47.4237 54.4192 47.5295 54.3782 47.6281C54.3064 47.8063 53.6282 49.375 52.4439 49.9469C52.322 50.0063 52.1907 50.0313 52.0626 50.0281Z" fill="white"/>
<defs>
<filter id="filter0_d_2043_443" x="0.672363" y="2.06934" width="92.6553" height="83.0049" filterUnits="userSpaceOnUse" color-interpolation-filters="sRGB">
<feFlood flood-opacity="0" result="BackgroundImageFix"/>
<feColorMatrix in="SourceAlpha" type="matrix" values="0 0 0 0 0 0 0 0 0 0 0 0 0 0 0 0 0 0 127 0" result="hardAlpha"/>
<feOffset dx="-4" dy="6"/>
<feGaussianBlur stdDeviation="2"/>
<feComposite in2="hardAlpha" operator="out"/>
<feColorMatrix type="matrix" values="0 0 0 0 0 0 0 0 0 0 0 0 0 0 0 0 0 0 0.25 0"/>
<feBlend mode="normal" in2="BackgroundImageFix" result="effect1_dropShadow_2043_443"/>
<feBlend mode="normal" in="SourceGraphic" in2="effect1_dropShadow_2043_443" result="shape"/>
</filter>
</defs>
</svg>
