<svg width="98" height="86" viewBox="0 0 98 86" fill="none" xmlns="http://www.w3.org/2000/svg">
<g filter="url(#filter0_d_2044_449)">
<path d="M45.0604 3.81037C48.6798 1.48848 53.3202 1.48848 56.9396 3.81037L88.266 23.9069C92.6085 26.6928 94.4314 32.1224 92.6497 36.9643L81.2758 67.873C79.6838 72.1995 75.5627 75.0742 70.9526 75.0742H31.0474C26.4373 75.0742 22.3162 72.1995 20.7242 67.873L9.35036 36.9643C7.56863 32.1224 9.39148 26.6928 13.734 23.9069L45.0604 3.81037Z" fill="white"/>
</g>
<path d="M63.7556 29.7513C63.7556 29.7513 63.7662 29.8975 63.7694 30.1643L63.7706 30.27C63.7709 30.3075 63.7727 30.3446 63.7688 30.3921L63.7442 30.6888C63.7343 30.7951 63.7251 30.9148 63.7114 31.0344C63.6972 31.1518 63.6837 31.2781 63.6651 31.41C63.578 32.0481 63.4454 32.6791 63.2684 33.2983C63.0646 34.0177 62.7778 34.818 62.3829 35.661C61.9894 36.5045 61.4818 37.3856 60.8591 38.2669C60.7835 38.3793 60.7006 38.4861 60.6189 38.5959L60.4952 38.7606L60.4328 38.8434L60.4172 38.8642C60.4664 38.8189 60.3414 38.9375 60.352 38.9284L60.3455 38.9371L60.3195 38.9717C60.1815 39.1573 60.036 39.3389 59.8922 39.5259L59.8786 39.5434L59.8595 39.565L59.8209 39.6082L59.7434 39.695L59.5853 39.8671L59.2631 40.213L59.1817 40.2996L59.1053 40.3779C59.0542 40.4305 59.0025 40.4825 58.9502 40.5339L58.6346 40.8456C57.781 41.6725 56.8114 42.4427 55.7584 43.1266C54.6907 43.818 53.5591 44.4054 52.3792 44.8807C51.1984 45.3576 49.9753 45.722 48.726 45.9691C47.491 46.2118 46.2546 46.3332 45.061 46.3393C43.8672 46.3459 42.7173 46.2397 41.6488 46.0492C41.114 45.9584 40.6004 45.8345 40.1094 45.7071C39.6196 45.5676 39.1516 45.4272 38.7121 45.2602L38.386 45.1411C38.2788 45.1016 38.1746 45.0543 38.0712 45.0119C37.8644 44.9259 37.6642 44.8395 37.4706 44.7528C37.2777 44.6633 37.0922 44.5702 36.9131 44.4797L36.649 44.346C36.5625 44.3021 36.4796 44.2518 36.3972 44.2062C36.0689 44.0189 35.7649 43.8451 35.495 43.6609C35.224 43.48 34.9773 43.3167 34.7642 43.1496L34.4627 42.9155L34.2021 42.7033C34.0431 42.5672 33.912 42.4455 33.8062 42.3473C33.5949 42.1509 33.4881 42.0387 33.4881 42.0387C32.4941 40.9943 32.535 39.3418 33.5795 38.3478C33.9982 37.9481 34.5383 37.6996 35.1143 37.6417L35.4274 37.61C35.4274 37.61 35.5587 37.5968 35.7937 37.5857C35.9111 37.5802 36.0553 37.5728 36.2198 37.5711L36.4881 37.5553L36.7864 37.5439C36.9934 37.542 37.2256 37.5218 37.4699 37.5139C37.7135 37.5089 37.9789 37.484 38.2535 37.473C38.5286 37.4608 38.8213 37.4303 39.1206 37.4164C39.4239 37.3836 39.7342 37.3697 40.0571 37.3319L40.3002 37.3078L40.4225 37.2978L40.5464 37.2825L40.796 37.2519L41.0477 37.2264C41.2171 37.2016 41.3881 37.1775 41.5601 37.1581L41.6895 37.1421L41.8198 37.1206L42.0817 37.0824C42.7828 36.9761 43.5053 36.8474 44.2377 36.6902C45.7027 36.3778 47.2078 35.9527 48.6761 35.4081C49.4093 35.1353 50.1326 34.8365 50.8446 34.5124C51.5548 34.1909 52.2464 33.843 52.92 33.4853L53.1693 33.3475C53.2107 33.3244 53.2525 33.302 53.2949 33.2802L53.3582 33.2473L53.4122 33.2181L53.6281 33.1028L53.7369 33.046L53.7924 33.0187L53.8201 33.0051L53.8341 32.9982L53.8526 32.9861C54.0505 32.8576 54.243 32.727 54.4391 32.6043L54.4756 32.5811L54.4848 32.5753C54.5006 32.5614 54.3807 32.6751 54.4349 32.6249L54.4496 32.6158L54.5084 32.5797L54.6257 32.5078L54.8592 32.3644C55.4762 31.9797 56.0684 31.593 56.6167 31.2099C57.1304 30.8518 57.6371 30.484 58.1367 30.1066C58.5982 29.7604 59.0052 29.4387 59.3496 29.1678C59.4342 29.0993 59.5184 29.0357 59.596 28.9744C59.6726 28.9147 59.7432 28.8637 59.8103 28.8127L59.9971 28.672C60.0262 28.6528 60.0564 28.6252 60.0846 28.6013L60.1649 28.5325C60.3675 28.3589 60.4844 28.2703 60.4844 28.2703C61.3835 27.5889 62.6649 27.7653 63.3464 28.6645C63.586 28.979 63.7283 29.3568 63.7556 29.7513Z" fill="#FFAE2C"/>
<path d="M34.4009 39.954C34.081 40.6843 33.7978 40.781 33.0466 40.452C32.2952 40.123 32.1742 39.8493 32.494 39.119C32.8137 38.3887 34.7207 39.2237 34.4009 39.954Z" fill="#B28E7F"/>
<path d="M65.4074 30.6902C65.4074 30.6902 65.4424 30.8519 65.4884 31.1495L65.5066 31.2675C65.5129 31.3093 65.5208 31.3506 65.524 31.4041L65.5436 31.7396C65.5495 31.86 65.5583 31.9952 65.5619 32.131C65.5647 32.2645 65.5697 32.4077 65.57 32.5581C65.5742 33.285 65.5263 34.0112 65.4269 34.7312C65.3134 35.5674 65.1203 36.5073 64.813 37.512C64.5074 38.517 64.0803 39.5823 63.5246 40.6661C63.458 40.8037 63.3823 40.9363 63.3085 41.0719L63.1965 41.2756L63.14 41.3781L63.1258 41.4038C63.1735 41.3454 63.0526 41.4978 63.063 41.4859L63.0572 41.4966L63.0336 41.5394C62.909 41.7688 62.7753 41.9948 62.6443 42.2266L62.6319 42.2483L62.614 42.2754L62.5777 42.3298L62.5049 42.4391L62.3556 42.6565L62.0507 43.0942L61.9735 43.2039L61.9004 43.3036C61.8519 43.3704 61.8022 43.4365 61.752 43.5024L61.449 43.9009C60.6265 44.9606 59.6656 45.9753 58.5976 46.907C57.5144 47.8492 56.3434 48.6855 55.1005 49.4041C53.857 50.1248 52.5482 50.7265 51.1915 51.2012C49.8501 51.6686 48.4879 52.0009 47.1551 52.1975C45.8221 52.3947 44.5203 52.4588 43.296 52.4157C42.684 52.3992 42.0904 52.3425 41.5215 52.2781C40.9521 52.2002 40.4067 52.1177 39.889 52.0009L39.5058 51.9198C39.3797 51.8927 39.2558 51.8563 39.1335 51.8254C38.8952 51.7639 38.6577 51.6992 38.4211 51.6313C38.1914 51.562 37.9694 51.4875 37.7547 51.4148L37.4384 51.3073C37.3348 51.2721 37.2342 51.2291 37.1348 51.1913C36.9432 51.1165 36.7526 51.0394 36.5629 50.9601C36.3794 50.8881 36.2061 50.8033 36.0401 50.7253C35.7084 50.5663 35.4068 50.423 35.1422 50.2701C34.9067 50.1382 34.6734 50.0024 34.4426 49.8626C34.2746 49.7531 34.1084 49.6408 33.944 49.5259C33.6767 49.34 33.5395 49.2316 33.5395 49.2316C32.2628 48.2226 32.0458 46.3696 33.0549 45.0929C33.4592 44.5797 34.0233 44.2161 34.6576 44.0598L35.0025 43.9747C35.0025 43.9747 35.147 43.9389 35.4079 43.8892C35.5382 43.8645 35.698 43.8335 35.8821 43.8034C36.0678 43.7658 36.2786 43.7255 36.5105 43.6848C36.7415 43.6497 36.9977 43.5902 37.2695 43.5425C37.5409 43.4982 37.8335 43.4283 38.1386 43.3723C38.4441 43.3149 38.7663 43.2344 39.0985 43.1712C39.2674 43.1293 39.437 43.09 39.6071 43.0532C39.7792 43.017 39.9543 42.971 40.1316 42.9279L40.3994 42.8623L40.5344 42.8316L40.6704 42.7948L40.9444 42.721L41.2215 42.6525L41.501 42.5711L41.9253 42.4563L42.0675 42.4115C42.1625 42.382 42.2582 42.3553 42.354 42.3271C43.1206 42.097 43.9074 41.8382 44.7008 41.5461C46.2882 40.9642 47.9024 40.2498 49.4565 39.4078C50.2324 38.9865 50.9931 38.5377 51.7371 38.0622C52.4796 37.5901 53.1971 37.0914 53.8929 36.5845L54.1497 36.3909C54.1923 36.3584 54.2355 36.3267 54.2792 36.2957L54.3447 36.2489L54.4004 36.2077L54.6233 36.0445L54.7359 35.9637L54.7936 35.9244L54.8225 35.9048L54.837 35.8948L54.8558 35.8784C55.0565 35.7033 55.2508 35.5267 55.4504 35.3584L55.4876 35.3266L55.4969 35.3188C55.5124 35.3006 55.3965 35.4467 55.449 35.382L55.464 35.3696L55.5239 35.32L55.6436 35.221L55.8816 35.0237C56.5099 34.4957 57.1102 33.9695 57.662 33.4542C58.179 32.9725 58.6868 32.4809 59.1851 31.9798C59.6457 31.5196 60.0493 31.0956 60.3911 30.738C60.4747 30.648 60.5586 30.5635 60.6357 30.4827C60.7118 30.4038 60.7826 30.3357 60.8494 30.268L61.0357 30.081C61.0651 30.055 61.0946 30.0193 61.1222 29.9881L61.2011 29.8984C61.3999 29.6723 61.5164 29.5547 61.5164 29.5547C62.4127 28.6502 63.8726 28.6438 64.777 29.5401C65.0948 29.8538 65.3139 30.2535 65.4074 30.6902Z" fill="#FFB93E"/>
<path d="M34.2283 46.756C33.987 47.6228 31.7235 46.9929 31.9647 46.126C32.206 45.2592 32.5071 45.1061 33.399 45.3543C34.2908 45.6025 34.4695 45.889 34.2283 46.756Z" fill="#A07562"/>
<path d="M64.1137 23.523C64.0233 23.4982 63.9287 23.4921 63.8359 23.5052C63.7395 23.4226 63.6315 23.3546 63.5153 23.3035C63.0484 23.099 62.5409 23.5504 62.2826 23.8334C61.4967 24.6942 63.2654 25.8235 62.0086 27.9028C61.8315 28.1958 61.9825 28.9504 62.2528 29.0688C62.5577 29.2023 62.917 29.105 63.184 28.8461C63.1764 28.8647 63.1692 28.8831 63.1612 28.9018C63.0099 29.2574 63.2987 30.0765 63.6195 30.1658C64.096 30.2984 64.6148 29.9699 64.8255 29.4077C65.4179 27.8267 66.0507 24.062 64.1137 23.523Z" fill="#8E6049"/>
<path d="M68.2133 29.5409C68.2133 29.5409 68.2938 29.6799 68.4266 29.942L68.4792 30.046C68.4977 30.083 68.5173 30.1181 68.5372 30.1696L68.6608 30.4874C68.7041 30.6016 68.7546 30.7296 68.8006 30.8587C68.845 30.9853 68.8942 31.1203 68.9418 31.2639C69.1739 31.9568 69.3587 32.6646 69.495 33.3825C69.6553 34.2161 69.7763 35.1737 69.814 36.2298C69.8534 37.2857 69.8009 38.4384 69.6372 39.6511C69.62 39.8036 69.593 39.9547 69.5685 40.1079L69.5308 40.3384L69.5116 40.4543L69.5068 40.4834C69.5312 40.4079 69.4709 40.6028 69.4764 40.5868L69.4744 40.5988L69.4663 40.6467C69.4245 40.9028 69.3737 41.1593 69.327 41.42L69.3226 41.4445L69.3148 41.4764L69.299 41.5404L69.2671 41.6687L69.1998 41.9258L69.0606 42.4445L69.025 42.5746L68.9898 42.6935C68.9664 42.7731 68.9421 42.8525 68.917 42.9317L68.7665 43.4108C68.3472 44.6889 67.793 45.9748 67.1106 47.2193C66.418 48.4776 65.6095 49.6685 64.6954 50.7765C63.779 51.8918 62.7555 52.9178 61.6681 53.8276C60.5808 54.7379 59.4294 55.5319 58.2581 56.1903C57.0871 56.8495 55.8998 57.3762 54.7472 57.7782C54.1729 57.9839 53.6014 58.1461 53.0503 58.2932C52.4938 58.4276 51.9584 58.55 51.4363 58.6313L51.0516 58.6963C50.9249 58.7174 50.797 58.7292 50.6724 58.7455C50.4227 58.7767 50.1792 58.8041 49.942 58.8277C49.704 58.848 49.4713 58.861 49.2462 58.8732L48.9141 58.8907C48.8054 58.8966 48.6966 58.8941 48.5908 58.896C48.1663 58.8978 47.7732 58.8999 47.4074 58.8731C47.0424 58.85 46.7109 58.8312 46.4101 58.7897L45.9856 58.7339L45.6133 58.677C45.3823 58.6356 45.1867 58.593 45.0289 58.5586C44.7133 58.4898 44.5466 58.4436 44.5466 58.4436C42.995 58.0132 42.0861 56.4064 42.5165 54.8548C42.7032 54.1779 43.1288 53.5915 43.7145 53.2043L44.0023 53.0141C44.0023 53.0141 44.1245 52.9333 44.3506 52.7997C44.4635 52.733 44.6019 52.6505 44.7636 52.5621L45.0203 52.4056L45.3091 52.2368C45.5129 52.1253 45.7316 51.982 45.9693 51.8439C46.2079 51.709 46.4571 51.5425 46.7234 51.3839C46.9894 51.2239 47.2627 51.0361 47.5519 50.8599C47.8347 50.6632 48.1347 50.4806 48.434 50.2665L48.6616 50.1098L48.7773 50.0328L48.8916 49.9496L49.1221 49.7824L49.3573 49.6184L49.59 49.4416L49.827 49.2678L49.9463 49.1804L50.0634 49.0869L50.3013 48.9036C50.9359 48.4089 51.5777 47.8769 52.2106 47.3086C52.8435 46.7404 53.4704 46.1395 54.0753 45.5054C54.6805 44.8716 55.2632 44.205 55.8194 43.5182C56.9286 42.1416 57.9231 40.6771 58.7767 39.2114L58.933 38.9358C58.9588 38.89 58.9852 38.8443 59.0127 38.7992L59.0534 38.7313L59.0869 38.6725L59.2214 38.4396L59.29 38.3239L59.3258 38.2664L59.3438 38.2378L59.3527 38.2233L59.3634 38.2009C59.4781 37.9621 59.587 37.7244 59.7029 37.4922L59.7244 37.4486L59.7298 37.4378C59.7378 37.4143 59.6798 37.6014 59.7063 37.5182L59.7148 37.5012L59.749 37.4332L59.8173 37.2975L59.953 37.0275C60.3077 36.3086 60.6352 35.6055 60.9218 34.9336C61.1897 34.3076 61.4451 33.6764 61.6879 33.0404C61.9127 32.4576 62.1002 31.9307 62.2592 31.4872C62.2972 31.3764 62.3373 31.2707 62.3732 31.1707C62.4088 31.0733 62.4434 30.9894 62.4751 30.9063L62.5644 30.6768C62.5798 30.6446 62.5916 30.6001 62.6035 30.5613L62.6373 30.4497C62.7224 30.1685 62.7775 30.0176 62.7775 30.0176C63.3483 28.455 65.0778 27.651 66.6404 28.2218C67.329 28.4731 67.872 28.9529 68.2133 29.5409Z" fill="#FFCE6C"/>
<path d="M67.679 37.1285C67.679 37.1285 67.7275 37.3537 67.7765 37.7433C67.783 37.7921 67.7899 37.8434 67.7954 37.8971L67.8044 37.9795L67.8087 38.0715C67.8152 38.1973 67.816 38.3333 67.8197 38.4802C67.8215 38.6261 67.822 38.7851 67.818 38.9477L67.7848 39.4508C67.7623 39.8036 67.7014 40.1783 67.6329 40.577C67.6177 40.6774 67.5939 40.7763 67.5708 40.8769L67.498 41.1822C67.4471 41.3876 67.3976 41.5994 67.3272 41.8071C67.2601 42.0201 67.1904 42.2322 67.1181 42.4435C67.0381 42.6547 66.9508 42.866 66.8635 43.0796C66.8175 43.1852 66.777 43.2944 66.7254 43.398L66.5732 43.7116L66.4173 44.0251C66.3665 44.1305 66.3093 44.2322 66.2505 44.3331C66.1352 44.5357 66.018 44.7373 65.8989 44.9377C65.7737 45.1317 65.646 45.3241 65.5157 45.5147C65.3905 45.7068 65.2513 45.8866 65.1143 46.0641C64.9755 46.2403 64.844 46.4183 64.7 46.5816C64.4129 46.9089 64.135 47.2232 63.8446 47.4958L63.6329 47.6995C63.5628 47.7657 63.4956 47.8324 63.4237 47.8926C63.2803 48.0134 63.1458 48.1328 63.0104 48.2411C62.747 48.4647 62.4862 48.6479 62.2555 48.8082C62.1393 48.8876 62.0323 48.9629 61.9298 49.0284C61.8344 49.0869 61.7382 49.144 61.6411 49.1997C61.5056 49.2786 61.3682 49.3543 61.2291 49.4267C61.1326 49.4767 61.0799 49.5016 61.0799 49.5016C60.9593 49.5587 60.8238 49.5762 60.6927 49.5517C60.5616 49.5272 60.4415 49.4619 60.3497 49.3652C60.2579 49.2684 60.1989 49.1451 60.1813 49.0129C60.1637 48.8806 60.1883 48.7462 60.2516 48.6288L60.2626 48.6089L60.3394 48.4683C60.3906 48.3779 60.466 48.2465 60.5664 48.0861C60.6156 48.0049 60.6722 47.9176 60.7335 47.8228C60.7908 47.7241 60.8558 47.6209 60.9239 47.5101C61.0607 47.289 61.2226 47.0494 61.3852 46.779C61.4666 46.644 61.558 46.5099 61.6484 46.3683C61.7367 46.2249 61.8256 46.0758 61.9205 45.9261C62.1145 45.6297 62.2997 45.3061 62.5035 44.9831C62.5562 44.9035 62.6034 44.8194 62.6517 44.7354L62.8004 44.4838L62.9533 44.2315C63.0053 44.1475 63.0508 44.0592 63.1009 43.9733C63.1978 43.7995 63.3009 43.6279 63.4012 43.454C63.4959 43.2768 63.5925 43.1006 63.6911 42.9255C63.7933 42.7519 63.8788 42.5706 63.974 42.3946C64.0671 42.2177 64.1659 42.0441 64.2496 41.8656C64.3374 41.6904 64.4267 41.5161 64.5175 41.3425C64.598 41.169 64.6809 40.9966 64.7663 40.8255C64.854 40.6573 64.9265 40.4872 65.0037 40.3221L65.1195 40.0771C65.1592 39.9982 65.1963 39.918 65.2307 39.8366C65.2983 39.6807 65.3678 39.5256 65.4391 39.3714C65.5144 39.2223 65.5704 39.0738 65.6312 38.9321L65.8121 38.5245C65.8698 38.3966 65.9144 38.277 65.9654 38.1627C66.0164 38.049 66.0615 37.9411 66.1088 37.8415L66.143 37.7678L66.1725 37.6903C66.1912 37.6397 66.2109 37.5918 66.2294 37.5462C66.3748 37.1814 66.4783 36.9755 66.4783 36.9755C66.5547 36.8235 66.6884 36.708 66.85 36.6546C67.0116 36.6011 67.1878 36.614 67.3398 36.6904C67.5194 36.7804 67.6387 36.9466 67.679 37.1285Z" fill="#FFDF95"/>
<path d="M44.2901 55.8869C44.3799 56.7823 44.1548 57.0341 43.2337 57.1264C42.3126 57.2187 42.0421 57.0166 41.9523 56.1212C41.8625 55.2259 42.0876 54.9741 43.0087 54.8817C43.9298 54.7894 44.2003 54.9915 44.2901 55.8869Z" fill="#8E6049"/>
<path d="M65.6588 29.7629C66.1509 29.7136 66.5152 29.2193 66.5074 28.6189C66.4858 26.9307 67.7842 24.3092 65.9942 23.3936C63.875 22.3096 62.209 23.7987 62.1116 24.22C61.8152 25.5018 64.0763 25.7086 64.7896 29.2943C64.865 29.6732 65.3274 29.7961 65.6588 29.7629Z" fill="#966C5A"/>
<path d="M65.4071 25.9406C64.8377 26.8641 65.4078 29.7882 65.6587 29.763C66.1508 29.7136 67.4617 22.6087 65.4071 25.9406Z" fill="#18937E"/>
<defs>
<filter id="filter0_d_2044_449" x="0.672363" y="2.06934" width="92.6553" height="83.0049" filterUnits="userSpaceOnUse" color-interpolation-filters="sRGB">
<feFlood flood-opacity="0" result="BackgroundImageFix"/>
<feColorMatrix in="SourceAlpha" type="matrix" values="0 0 0 0 0 0 0 0 0 0 0 0 0 0 0 0 0 0 127 0" result="hardAlpha"/>
<feOffset dx="-4" dy="6"/>
<feGaussianBlur stdDeviation="2"/>
<feComposite in2="hardAlpha" operator="out"/>
<feColorMatrix type="matrix" values="0 0 0 0 0 0 0 0 0 0 0 0 0 0 0 0 0 0 0.25 0"/>
<feBlend mode="normal" in2="BackgroundImageFix" result="effect1_dropShadow_2044_449"/>
<feBlend mode="normal" in="SourceGraphic" in2="effect1_dropShadow_2044_449" result="shape"/>
</filter>
</defs>
</svg>
