<svg width="98" height="86" viewBox="0 0 98 86" fill="none" xmlns="http://www.w3.org/2000/svg">
<g filter="url(#filter0_d_2043_429)">
<path d="M45.0604 3.81037C48.6798 1.48848 53.3202 1.48848 56.9396 3.81037L88.266 23.9069C92.6085 26.6928 94.4314 32.1224 92.6497 36.9643L81.2758 67.873C79.6838 72.1995 75.5627 75.0742 70.9526 75.0742H31.0474C26.4373 75.0742 22.3162 72.1995 20.7242 67.873L9.35036 36.9643C7.56863 32.1224 9.39148 26.6928 13.734 23.9069L45.0604 3.81037Z" fill="white"/>
</g>
<path d="M57.0906 49.9502C56.5219 50.0627 43.0313 51.7721 43.0313 51.7721C43.0313 51.7721 42.7469 54.1627 43.1438 54.9596C43.5406 55.7564 46.1031 57.5783 50.9406 57.5783C55.7781 57.5783 58.4531 56.0408 58.8531 55.1314C59.2531 54.2221 58.6813 50.3502 58.6813 50.3502L57.0906 49.9502Z" fill="#77A3AB"/>
<path d="M41.6468 32.3877L32.4624 36.6408C32.4624 36.6408 33.1968 45.2939 38.9405 50.0314C47.2062 56.8471 59.5812 54.8158 65.2843 48.1471C70.4905 42.0596 69.5374 33.9846 69.5374 33.9846L41.6468 32.3877Z" fill="#A7D0D6"/>
<path d="M32.2344 34.7813C31.9781 38.4907 35.6719 43.025 50.9 43.1969C66.7813 43.375 72.4094 35.5532 68.8531 31.4657C65.2969 27.3781 56.6469 26.9031 50.6625 26.9625C44.6781 27.0219 32.65 28.7594 32.2344 34.7813Z" fill="#77A3AC"/>
<path d="M34.2375 36.2933C34.2375 36.2933 34.0719 35.5214 34.3406 34.7152C34.6094 33.9089 35.0906 33.6745 35.1594 33.4152C35.2281 33.1558 34.5687 31.7839 35.6812 29.9808C36.7937 28.1777 37.5156 28.5589 37.8219 28.1777C38.1281 27.7964 38.1125 26.5089 39.4937 25.2808C40.875 24.0527 42.1406 24.1683 42.1406 24.1683C42.1406 24.1683 42.7562 22.5558 44.25 21.9433C45.7437 21.3308 47.25 21.7089 47.25 21.7089C47.25 21.7089 48.5937 20.4808 50.475 20.4433C52.3562 20.4058 52.8937 20.9433 53.3156 20.9808C53.7375 21.0183 54.7344 20.5214 56.5 21.1714C58.2656 21.8245 58.2906 22.8152 58.6875 22.9745C59.0844 23.1339 60.1469 22.8214 61.7594 24.1245C63.3719 25.4277 63.1062 26.0277 63.3344 26.2745C63.5594 26.5214 65.075 26.5308 65.9062 28.6527C66.5187 30.2152 66.1906 31.362 66.2531 31.5308C66.3156 31.6995 67.1844 32.6027 67.5594 33.5277C67.9062 34.3902 68.0594 35.5995 68.0594 35.5995C68.0594 35.5995 67.2531 37.012 65.3 38.2964C63.2344 39.6558 40.0375 39.7152 38.5 39.2245C35.8437 38.3839 34.2375 36.2933 34.2375 36.2933Z" fill="#CDCBC0"/>
<path d="M36.7721 33.9526C36.7721 33.9526 36.6002 32.0214 37.119 30.9589C37.8471 29.462 39.269 29.3089 39.269 29.3089C39.269 29.3089 39.4284 27.6026 40.6502 26.662C42.1471 25.512 42.7221 25.8183 43.2221 25.3558C43.7221 24.8964 44.0284 24.0901 45.2565 23.5526C46.4846 23.0151 47.4815 23.362 47.9034 23.1683C48.3252 22.9745 49.0002 22.187 50.344 22.0964C52.0721 21.9808 52.1846 22.6495 53.1752 22.7558C53.8784 22.8308 54.4034 22.4151 55.9002 22.8745C57.3971 23.3339 57.4471 24.2401 57.9221 24.5495C58.3971 24.8589 59.569 24.5745 60.8377 25.5464C61.9877 26.4276 61.9752 27.2433 62.2971 27.5808C62.6159 27.9183 63.5627 28.0401 64.2534 29.8464C64.8284 31.3495 64.4034 31.7933 64.5596 32.2651C64.7159 32.737 65.5721 33.2308 66.094 34.6433C66.7471 36.4089 66.5534 37.3308 66.5534 37.3308C66.5534 37.3308 63.4065 41.5214 49.4377 41.3589C39.3815 41.2433 35.7752 37.7526 35.7752 37.7526C35.7752 37.7526 35.6221 35.8714 36.0065 35.1433C36.3909 34.4151 36.7721 33.9526 36.7721 33.9526Z" fill="white"/>
<path d="M50.1158 40.328C50.4251 41.0249 51.6439 41.1405 52.6689 39.9936C53.5876 38.9624 53.0501 37.3749 52.0658 37.5093C51.1689 37.6311 51.4626 38.5624 51.0345 38.9186C50.6064 39.2749 49.847 39.7218 50.1158 40.328ZM54.9064 36.0749C55.172 36.6436 56.7658 36.5218 57.3689 35.4718C57.972 34.4186 57.8845 32.8811 57.0095 32.8968C55.8689 32.9186 56.2939 34.0843 55.8908 34.4405C55.4876 34.7968 54.4595 35.1124 54.9064 36.0749ZM61.0626 30.2749C60.4064 30.4874 60.7501 31.3499 60.4814 31.9311C60.2126 32.5124 59.497 33.1624 60.0564 33.6561C60.6158 34.1499 61.8908 33.3436 62.072 32.1124C62.247 30.8811 61.7564 30.053 61.0626 30.2749ZM58.2939 38.0624C57.8751 38.7343 57.0845 38.3968 56.9283 39.0936C56.772 39.7874 58.3845 40.0343 59.2783 39.2061C60.1751 38.378 59.9283 36.9686 59.3689 36.8561C58.8095 36.7405 58.6283 37.5249 58.2939 38.0624ZM55.7689 30.3936C56.1376 30.8061 57.6158 30.3686 58.1064 28.8968C58.597 27.4249 57.6283 26.4749 56.9751 26.8093C56.322 27.1436 56.7876 27.853 56.6314 28.3124C56.4751 28.7718 55.047 29.5874 55.7689 30.3936Z" fill="#D4D4D4"/>
<defs>
<filter id="filter0_d_2043_429" x="0.672363" y="2.06934" width="92.6553" height="83.0049" filterUnits="userSpaceOnUse" color-interpolation-filters="sRGB">
<feFlood flood-opacity="0" result="BackgroundImageFix"/>
<feColorMatrix in="SourceAlpha" type="matrix" values="0 0 0 0 0 0 0 0 0 0 0 0 0 0 0 0 0 0 127 0" result="hardAlpha"/>
<feOffset dx="-4" dy="6"/>
<feGaussianBlur stdDeviation="2"/>
<feComposite in2="hardAlpha" operator="out"/>
<feColorMatrix type="matrix" values="0 0 0 0 0 0 0 0 0 0 0 0 0 0 0 0 0 0 0.25 0"/>
<feBlend mode="normal" in2="BackgroundImageFix" result="effect1_dropShadow_2043_429"/>
<feBlend mode="normal" in="SourceGraphic" in2="effect1_dropShadow_2043_429" result="shape"/>
</filter>
</defs>
</svg>
