<svg width="98" height="86" viewBox="0 0 98 86" fill="none" xmlns="http://www.w3.org/2000/svg">
<g filter="url(#filter0_d_2043_438)">
<path d="M45.0604 3.81037C48.6798 1.48848 53.3202 1.48848 56.9396 3.81037L88.266 23.9069C92.6085 26.6928 94.4314 32.1224 92.6497 36.9643L81.2758 67.873C79.6838 72.1995 75.5627 75.0742 70.9526 75.0742H31.0474C26.4373 75.0742 22.3162 72.1995 20.7242 67.873L9.35036 36.9643C7.56863 32.1224 9.39148 26.6928 13.734 23.9069L45.0604 3.81037Z" fill="white"/>
</g>
<path d="M69.4279 44.6809C69.4279 44.6809 69.9623 40.6028 68.9905 38.759C68.0186 36.9153 65.0186 32.8434 58.7967 32.109C55.4967 31.7215 53.2623 32.159 51.2248 32.3996C49.9342 32.5528 47.5311 31.759 43.2154 32.7403C40.0154 33.4684 35.1592 36.284 33.5811 42.3528C32.7498 45.5496 33.0654 49.0028 34.4811 51.9121C37.1998 57.4934 42.2467 58.8528 42.2467 58.8528L52.3904 59.6778L64.6717 54.484L69.4279 44.6809Z" fill="#FF2A23"/>
<path d="M57.6346 60.2123C64.0908 58.9498 69.6721 53.1748 70.6439 47.0592C71.5533 41.3373 68.2096 37.5029 68.2096 37.5029C68.2096 37.5029 68.5908 40.5561 67.8783 43.8092C67.1127 47.2904 64.8971 53.0936 57.8783 56.3811C49.2627 60.4154 39.8252 57.7561 39.8252 57.7561C39.8252 57.7561 46.2377 62.4404 57.6346 60.2123Z" fill="#DC0D27"/>
<path d="M39.7875 39.4876C38.0719 39.0439 35.9313 40.3408 35.6219 44.1376C35.3375 47.6158 37.2219 51.8064 39.0688 51.3064C40.6375 50.8814 39.1281 47.9751 39.6875 45.5908C40.2531 43.2064 42.4031 40.1658 39.7875 39.4876Z" fill="#FED3B0"/>
<path d="M41.9595 37.391C41.7157 37.7066 42.2814 39.0941 45.1532 39.0754C48.022 39.0566 48.5032 38.191 49.7814 38.5785C51.0595 38.966 52.0564 40.5035 53.4689 41.3441C55.4439 42.5191 58.2939 42.2191 58.2751 41.6973C58.2564 41.1723 57.5595 41.441 56.9595 40.7066C56.3595 39.9691 55.297 38.0223 55.297 38.0223C55.297 38.0223 55.5939 37.1098 56.222 37.1441C57.672 37.2223 59.2845 36.9348 60.172 36.3785C61.2345 35.716 61.6345 34.6941 61.4407 34.4598C61.247 34.2285 60.6439 34.8535 60.3157 34.7941C59.9876 34.7348 57.8532 34.7754 57.8532 34.7754L55.2751 34.3566C55.2751 34.3566 55.6282 32.8473 56.3251 32.0723C57.022 31.2973 58.1157 30.2316 58.0939 30.0973C58.072 29.9629 57.1939 30.0816 57.1939 30.0816L54.4782 31.3223L52.5782 33.8223L48.972 34.2879L45.5001 31.9598C45.5001 31.9598 43.5095 30.3535 43.4189 30.391C42.9157 30.5973 43.6814 31.3629 44.2595 32.2879C44.7595 33.091 44.8626 33.4941 45.5376 34.0535C46.197 34.5973 47.3032 35.1379 47.3032 35.1379L46.5095 36.5723C46.5095 36.5723 43.9501 37.5816 43.5032 37.5816C43.0595 37.5848 42.0939 37.2191 41.9595 37.391Z" fill="#BDCF44"/>
<path d="M49.9718 36.5251C51.0187 36.6032 51.775 37.9939 52.7187 38.9407C54.0968 40.3189 55.175 41.0376 56.3343 41.3095C56.9156 41.4439 58.25 41.6657 58.25 41.6657C58.25 41.6657 58.4437 41.5314 57.7843 41.1626C57.125 40.7939 56.7281 40.0876 56.6312 39.7595C56.5343 39.4314 56.2312 38.3532 55.5937 37.4595C54.9562 36.5657 54.2312 36.1876 54.4625 35.7814C54.6937 35.3751 56.6937 36.0626 58.6187 35.7532C61.1593 35.347 61.5468 34.5314 61.4312 34.4345C61.3156 34.3376 59.7437 34.8032 58.95 34.6282C58.1562 34.4532 57.475 33.9095 56.275 33.9095C55.4562 33.9095 54.6562 34.2064 54.4406 33.7595C54.2593 33.3845 54.9406 32.1314 55.4593 31.6595C56.7187 30.5157 58.0781 30.2439 58.0781 30.0876C58.0781 29.7657 55.8687 29.5845 54.3375 30.8064C52.8125 32.022 53.1 33.6189 51.1187 33.6189C50.4593 33.6189 50.2062 33.4626 50.2062 33.4626C50.2062 33.4626 49.3218 32.7345 48.1406 32.0939C46.9593 31.4532 46.0687 31.7376 45.3875 31.4095C44.7093 31.0814 43.5062 30.2314 43.3906 30.4032C43.275 30.5751 44.2937 31.7376 45.575 32.6876C46.8562 33.6376 48.2906 34.122 47.8812 34.5095C47.475 34.897 46.7968 35.1501 46.1562 35.6345C45.5156 36.1189 44.9531 36.8157 44.1781 37.0689C43.4031 37.322 42.1281 37.1439 41.9531 37.3564C41.7781 37.5689 43.3031 38.3032 45.6875 37.8595C48.0656 37.4157 48.0718 36.3845 49.9718 36.5251Z" fill="#94A61D"/>
<path d="M52.3499 24.5441C51.8281 24.5191 51.1687 24.9316 51.1687 24.9316C51.1687 24.9316 50.2124 26.0972 49.8343 28.9909C49.6593 30.3284 49.8499 32.1253 49.8124 33.1159C49.7749 34.1034 49.5593 34.4722 49.6187 34.9784C49.6781 35.4816 50.2062 36.0503 51.4281 36.0378C52.4093 36.0284 52.9156 35.2691 52.8968 34.9972C52.8781 34.7253 52.0374 31.9534 52.2749 29.5097C52.4968 27.2378 53.3249 25.6691 53.3593 25.3409C53.3781 25.1628 53.1437 24.5816 52.3499 24.5441Z" fill="#728035"/>
<defs>
<filter id="filter0_d_2043_438" x="0.672363" y="2.06934" width="92.6553" height="83.0049" filterUnits="userSpaceOnUse" color-interpolation-filters="sRGB">
<feFlood flood-opacity="0" result="BackgroundImageFix"/>
<feColorMatrix in="SourceAlpha" type="matrix" values="0 0 0 0 0 0 0 0 0 0 0 0 0 0 0 0 0 0 127 0" result="hardAlpha"/>
<feOffset dx="-4" dy="6"/>
<feGaussianBlur stdDeviation="2"/>
<feComposite in2="hardAlpha" operator="out"/>
<feColorMatrix type="matrix" values="0 0 0 0 0 0 0 0 0 0 0 0 0 0 0 0 0 0 0.25 0"/>
<feBlend mode="normal" in2="BackgroundImageFix" result="effect1_dropShadow_2043_438"/>
<feBlend mode="normal" in="SourceGraphic" in2="effect1_dropShadow_2043_438" result="shape"/>
</filter>
</defs>
</svg>
