<svg width="98" height="86" viewBox="0 0 98 86" fill="none" xmlns="http://www.w3.org/2000/svg">
<g filter="url(#filter0_d_2043_437)">
<path d="M45.0604 3.81037C48.6798 1.48848 53.3202 1.48848 56.9396 3.81037L88.266 23.9069C92.6085 26.6928 94.4314 32.1224 92.6497 36.9643L81.2758 67.873C79.6838 72.1995 75.5627 75.0742 70.9526 75.0742H31.0474C26.4373 75.0742 22.3162 72.1995 20.7242 67.873L9.35035 36.9643C7.56863 32.1224 9.39148 26.6928 13.734 23.9069L45.0604 3.81037Z" fill="white"/>
</g>
<path d="M36.8583 41.4166C36.3347 40.4343 36.0654 39.3364 36.075 38.2233C41.4433 34.6683 52.4283 27.5183 53.4083 27.3833C54.09 27.2666 54.7916 27.3766 55.4066 27.6933C63.7733 37.2966 65.5233 45.3233 65.9466 50.5383C66.1433 51.9083 65.8966 54.9383 63.3916 56.1633C60.2583 57.7099 57.58 55.7933 55.4066 55.2783C53.2416 54.7516 48.8116 53.0616 46.76 51.7433C44.72 50.4149 43.9066 49.4049 42.7933 48.3633C41.67 47.3133 37.7033 42.8916 36.8583 41.4183" fill="url(#paint0_linear_2043_437)"/>
<path d="M58.8064 33.2154C59.2081 32.6588 59.8781 33.5238 60.1664 34.0188C62.6497 37.2021 64.9064 44.1888 64.8147 44.1888C64.1231 41.9638 58.3231 33.9054 58.8064 33.2154Z" fill="#EBDDD5" fill-opacity="0.7"/>
<path d="M46.1731 34.7151C51.2281 31.6368 54.8931 28.4001 54.3565 27.4868C53.8231 26.5735 49.2915 28.3285 44.2365 31.4068C39.1815 34.4851 35.5165 37.7201 36.0531 38.6335C36.5865 39.5468 41.1181 37.7918 46.1731 34.7151Z" fill="#E6DE95"/>
<path d="M36.2831 39.8838C36.0331 39.6554 36.1897 39.3054 36.3031 39.1604C37.0864 39.5321 39.7864 38.8321 41.0431 38.4404C39.5597 39.0071 36.5297 40.1088 36.2814 39.8821" fill="url(#paint1_linear_2043_437)"/>
<defs>
<filter id="filter0_d_2043_437" x="0.672363" y="2.06934" width="92.6553" height="83.0049" filterUnits="userSpaceOnUse" color-interpolation-filters="sRGB">
<feFlood flood-opacity="0" result="BackgroundImageFix"/>
<feColorMatrix in="SourceAlpha" type="matrix" values="0 0 0 0 0 0 0 0 0 0 0 0 0 0 0 0 0 0 127 0" result="hardAlpha"/>
<feOffset dx="-4" dy="6"/>
<feGaussianBlur stdDeviation="2"/>
<feComposite in2="hardAlpha" operator="out"/>
<feColorMatrix type="matrix" values="0 0 0 0 0 0 0 0 0 0 0 0 0 0 0 0 0 0 0.25 0"/>
<feBlend mode="normal" in2="BackgroundImageFix" result="effect1_dropShadow_2043_437"/>
<feBlend mode="normal" in="SourceGraphic" in2="effect1_dropShadow_2043_437" result="shape"/>
</filter>
<linearGradient id="paint0_linear_2043_437" x1="62.5166" y1="33.3283" x2="44.6133" y2="51.9749" gradientUnits="userSpaceOnUse">
<stop offset="0.01" stop-color="#F374AB"/>
<stop offset="0.3" stop-color="#ED4892"/>
<stop offset="0.91" stop-color="#A71C2D"/>
<stop offset="1" stop-color="#B91F2B"/>
</linearGradient>
<linearGradient id="paint1_linear_2043_437" x1="36.2814" y1="39.5838" x2="40.2597" y2="39.6038" gradientUnits="userSpaceOnUse">
<stop stop-color="#EAC4CF"/>
<stop offset="1" stop-color="#E76D9E" stop-opacity="0"/>
</linearGradient>
</defs>
</svg>
